<svg width="445" height="60" viewBox="0 0 445 60" fill="none" xmlns="http://www.w3.org/2000/svg">
<path d="M32.7422 7.78125C32.3776 8.30208 31.987 8.79688 31.5703 9.26562C31.1797 9.70833 30.6849 10.0599 30.0859 10.3203C29.7734 12.1172 29.513 13.9271 29.3047 15.75C29.1224 17.5729 28.9141 19.3958 28.6797 21.2188C28.4714 23.0417 28.224 24.8646 27.9375 26.6875C27.6771 28.4844 27.3125 30.2682 26.8438 32.0391L26.8828 32.5078C26.9349 33.0286 26.8698 33.5234 26.6875 33.9922C26.5052 34.4609 26.4271 34.9688 26.4531 35.5156C26.0885 36.4271 25.776 37.4427 25.5156 38.5625C25.2552 39.6562 25.099 40.6979 25.0469 41.6875C24.7865 42.1302 24.5651 42.612 24.3828 43.1328C24.2266 43.6536 24.0573 44.1875 23.875 44.7344C23.7188 45.2552 23.5365 45.763 23.3281 46.2578C23.1198 46.7266 22.8464 47.1562 22.5078 47.5469C22.4297 48.1458 22.2734 48.7057 22.0391 49.2266C21.8307 49.7734 21.5833 50.3073 21.2969 50.8281C21.0365 51.349 20.776 51.8568 20.5156 52.3516C20.2812 52.8724 20.112 53.4193 20.0078 53.9922C19.5651 54.6693 19.1224 55.3203 18.6797 55.9453C18.237 56.5964 17.8333 57.2734 17.4688 57.9766C17.1302 58.1328 16.8307 58.3021 16.5703 58.4844C16.3359 58.6927 16.1016 58.875 15.8672 59.0312C15.6328 59.2135 15.3594 59.3698 15.0469 59.5C14.7604 59.6302 14.4089 59.6953 13.9922 59.6953C13.888 59.6953 13.7839 59.6823 13.6797 59.6562C13.6016 59.6562 13.5104 59.6562 13.4062 59.6562C13.0417 59.3698 12.6771 59.0833 12.3125 58.7969C11.9479 58.5365 11.5573 58.3021 11.1406 58.0938C11.1406 57.9375 11.1146 57.8073 11.0625 57.7031C11.0365 57.599 11.0104 57.4948 10.9844 57.3906C10.9583 57.2865 10.9453 57.1823 10.9453 57.0781C10.9453 56.974 10.9714 56.8438 11.0234 56.6875C10.7891 56.5312 10.5156 56.2448 10.2031 55.8281C9.91667 55.4375 9.77344 55.099 9.77344 54.8125C9.77344 54.5521 9.86458 54.4219 10.0469 54.4219C9.99479 54.1615 9.90365 53.901 9.77344 53.6406C9.66927 53.4062 9.61719 53.1589 9.61719 52.8984C9.61719 52.7161 9.66927 52.5208 9.77344 52.3125C9.48698 51.6354 9.22656 50.9323 8.99219 50.2031C8.75781 49.5 8.60156 48.7708 8.52344 48.0156C8.26302 47.6771 8.05469 47.2865 7.89844 46.8438C7.76823 46.375 7.66406 45.8932 7.58594 45.3984C7.50781 44.9036 7.44271 44.4219 7.39062 43.9531C7.33854 43.4583 7.27344 43.0026 7.19531 42.5859C7.16927 42.4297 7.10417 42.1823 7 41.8438C6.89583 41.4792 6.84375 41.2318 6.84375 41.1016C6.84375 40.9453 6.86979 40.8281 6.92188 40.75C7 40.6719 7.0651 40.5677 7.11719 40.4375C6.80469 39.1875 6.54427 37.9245 6.33594 36.6484C6.15365 35.3724 5.97135 34.0964 5.78906 32.8203C5.63281 31.5443 5.4375 30.2812 5.20312 29.0312C4.99479 27.7552 4.69531 26.5052 4.30469 25.2812V24.9297C4.30469 24.0964 3.97917 23.4323 3.32812 22.9375C3.45833 22.5469 3.52344 22.2214 3.52344 21.9609C3.52344 21.6224 3.47135 21.2969 3.36719 20.9844C3.28906 20.6719 3.19792 20.3594 3.09375 20.0469C2.98958 19.7344 2.91146 19.4219 2.85938 19.1094C2.83333 18.7969 2.85938 18.4844 2.9375 18.1719C2.65104 17.8594 2.41667 17.5208 2.23438 17.1562C2.05208 16.7917 1.81771 16.4792 1.53125 16.2188L1.49219 15.9844C1.49219 15.8542 1.53125 15.737 1.60938 15.6328C1.66146 15.5286 1.6875 15.4115 1.6875 15.2812C1.6875 15.099 1.64844 14.9427 1.57031 14.8125C1.46615 14.6823 1.36198 14.5651 1.25781 14.4609C1.1276 14.3568 1.02344 14.2526 0.945312 14.1484C0.841146 14.0443 0.789062 13.9271 0.789062 13.7969C0.789062 13.4844 0.893229 13.237 1.10156 13.0547C1.3099 12.8724 1.54427 12.7161 1.80469 12.5859C2.0651 12.4297 2.3125 12.2734 2.54688 12.1172C2.80729 11.9609 2.97656 11.7396 3.05469 11.4531C3.26302 11.5052 3.47135 11.5443 3.67969 11.5703C3.88802 11.5703 4.09635 11.6224 4.30469 11.7266C4.33073 11.7005 4.34375 11.6615 4.34375 11.6094C4.34375 11.5312 4.21354 11.4661 3.95312 11.4141C3.71875 11.3359 3.5625 11.2448 3.48438 11.1406C3.69271 11.0885 3.84896 11.0625 3.95312 11.0625C4.47396 11.0625 4.96875 11.1927 5.4375 11.4531C5.93229 11.7135 6.40104 11.987 6.84375 12.2734C6.89583 12.5078 6.90885 12.7552 6.88281 13.0156C6.85677 13.25 6.9349 13.4714 7.11719 13.6797C7.09115 13.8099 7.07812 13.9271 7.07812 14.0312C7.10417 14.1354 7.11719 14.2396 7.11719 14.3438C7.11719 14.474 7.09115 14.5911 7.03906 14.6953C7.01302 14.7734 6.94792 14.8125 6.84375 14.8125C7.02604 15.125 7.14323 15.5026 7.19531 15.9453C7.27344 16.388 7.33854 16.8438 7.39062 17.3125C7.46875 17.7812 7.5599 18.237 7.66406 18.6797C7.76823 19.1224 7.96354 19.513 8.25 19.8516C8.19792 20.0078 8.15885 20.1641 8.13281 20.3203C8.13281 20.4766 8.13281 20.6458 8.13281 20.8281C8.13281 21.6615 8.23698 22.4818 8.44531 23.2891C8.65365 24.0964 8.75781 24.9167 8.75781 25.75C8.75781 26.2448 8.67969 26.7005 8.52344 27.1172C8.52344 27.3516 8.60156 27.5469 8.75781 27.7031C8.91406 27.8333 9.01823 28.0156 9.07031 28.25C8.9401 28.5625 8.875 28.862 8.875 29.1484C8.875 29.7474 8.99219 30.3203 9.22656 30.8672C9.46094 31.388 9.57812 31.9349 9.57812 32.5078C9.57812 32.6901 9.55208 32.8594 9.5 33.0156C9.44792 33.1719 9.39583 33.3151 9.34375 33.4453C9.57812 33.6797 9.69531 33.9792 9.69531 34.3438C9.72135 34.7083 9.83854 35.0078 10.0469 35.2422C10.0208 35.3724 9.99479 35.5026 9.96875 35.6328C9.96875 35.763 9.90365 35.8672 9.77344 35.9453C9.90365 36.1276 9.96875 36.375 9.96875 36.6875C9.99479 36.974 10.112 37.1432 10.3203 37.1953C10.2682 37.3255 10.2292 37.4427 10.2031 37.5469C10.1771 37.651 10.1641 37.7682 10.1641 37.8984C10.1641 38.1849 10.2031 38.4453 10.2812 38.6797L10.5156 39.3828C10.5938 39.6172 10.6458 39.8646 10.6719 40.125C10.724 40.3854 10.6979 40.6719 10.5938 40.9844C10.6979 41.1406 10.776 41.3229 10.8281 41.5312C10.9062 41.7396 10.9714 41.9609 11.0234 42.1953C11.0755 42.4036 11.1536 42.599 11.2578 42.7812C11.362 42.9375 11.5182 43.0417 11.7266 43.0938C11.7526 43.25 11.6875 43.3281 11.5312 43.3281C11.401 43.3281 11.3359 43.3932 11.3359 43.5234C11.3359 43.7318 11.4141 43.9922 11.5703 44.3047C11.7266 44.5911 11.8698 44.7995 12 44.9297C11.974 45.0339 11.9609 45.138 11.9609 45.2422V45.5938C11.9609 45.9583 12.013 46.3359 12.1172 46.7266C12.2214 47.0911 12.3125 47.4557 12.3906 47.8203C12.4948 48.2109 12.5729 48.5885 12.625 48.9531C12.6771 49.3177 12.651 49.6562 12.5469 49.9688C12.7552 50.3333 12.9375 50.724 13.0938 51.1406C13.25 51.5573 13.4974 51.9089 13.8359 52.1953C13.8359 52.638 13.9271 53.0547 14.1094 53.4453C14.2917 53.862 14.526 54.2526 14.8125 54.6172C15.0729 54.6172 15.2682 54.526 15.3984 54.3438C15.5286 54.1875 15.6328 54.0052 15.7109 53.7969C15.7891 53.5885 15.8802 53.3932 15.9844 53.2109C16.0885 53.0286 16.2578 52.9245 16.4922 52.8984C16.5182 52.638 16.5833 52.4167 16.6875 52.2344C16.8177 52.0781 16.9349 51.9089 17.0391 51.7266C17.1693 51.5443 17.2734 51.349 17.3516 51.1406C17.4557 50.9323 17.4948 50.6719 17.4688 50.3594L17.8984 50.2422C18.0286 49.5391 18.224 48.901 18.4844 48.3281C18.7708 47.7812 19.0833 47.2083 19.4219 46.6094V46.4141C19.4219 46.1536 19.4609 45.9323 19.5391 45.75C19.6172 45.5677 19.6302 45.3333 19.5781 45.0469C19.7604 44.9948 19.8906 44.8906 19.9688 44.7344C20.0469 44.5781 20.112 44.4219 20.1641 44.2656C20.2161 44.0833 20.2682 43.9141 20.3203 43.7578C20.3984 43.5755 20.5156 43.4453 20.6719 43.3672V43.0547C20.6458 42.8203 20.6589 42.599 20.7109 42.3906C20.7891 42.1562 20.776 41.9219 20.6719 41.6875C20.8802 41.6094 21.0365 41.4792 21.1406 41.2969C21.2448 41.1146 21.3229 40.9193 21.375 40.7109C21.4531 40.5026 21.4922 40.2812 21.4922 40.0469C21.5182 39.8125 21.5312 39.6042 21.5312 39.4219C21.7135 39.1875 21.8438 38.9141 21.9219 38.6016C22 38.263 22.0651 37.9245 22.1172 37.5859C22.1693 37.2474 22.2344 36.9219 22.3125 36.6094C22.4167 36.2969 22.5729 36.0234 22.7812 35.7891C22.7292 35.6589 22.7031 35.5417 22.7031 35.4375V35.0859C22.7031 34.5911 22.7812 34.1484 22.9375 33.7578C23.0938 33.3411 23.237 32.8984 23.3672 32.4297C23.7057 31.2578 23.9401 30.0599 24.0703 28.8359C24.2266 27.5859 24.4479 26.362 24.7344 25.1641C24.7604 25.0339 24.8125 24.8255 24.8906 24.5391C24.9688 24.2526 25.0469 23.9661 25.125 23.6797C25.2031 23.3672 25.2682 23.0938 25.3203 22.8594C25.3984 22.599 25.4375 22.4297 25.4375 22.3516C25.4375 22.1432 25.3854 22 25.2812 21.9219C25.2031 21.8438 25.1641 21.7135 25.1641 21.5312C25.3203 21.2969 25.4245 20.9974 25.4766 20.6328C25.5286 20.2682 25.5677 19.8906 25.5938 19.5C25.6198 19.0833 25.6198 18.6927 25.5938 18.3281C25.5938 17.9375 25.5938 17.599 25.5938 17.3125C25.5938 17.026 25.6589 16.6615 25.7891 16.2188C25.9193 15.776 26.0104 15.3854 26.0625 15.0469C26.1927 14.1615 26.2708 13.2891 26.2969 12.4297C26.349 11.5443 26.401 10.6589 26.4531 9.77344C26.6354 9.66927 26.7656 9.53906 26.8438 9.38281C26.9219 9.20052 26.9609 9.01823 26.9609 8.83594C26.9609 8.54948 26.9219 8.27604 26.8438 8.01562C26.7917 7.75521 26.7656 7.48177 26.7656 7.19531C26.7656 7.0651 26.7786 6.9349 26.8047 6.80469C26.8307 6.64844 26.8958 6.51823 27 6.41406C26.974 6.23177 26.9479 6.04948 26.9219 5.86719C26.9219 5.6849 26.8568 5.52865 26.7266 5.39844C26.8568 5.0599 26.9219 4.72135 26.9219 4.38281C26.9219 4.07031 26.8828 3.75781 26.8047 3.44531C26.7526 3.13281 26.7266 2.80729 26.7266 2.46875C26.7266 1.81771 27 1.34896 27.5469 1.0625H28.0938C28.3542 1.0625 28.6146 1.04948 28.875 1.02344C29.1354 0.997396 29.4089 0.919271 29.6953 0.789062C30.0339 1.15365 30.3854 1.55729 30.75 2C31.1146 2.41667 31.4271 2.8724 31.6875 3.36719C31.9479 3.86198 32.1432 4.36979 32.2734 4.89062C32.4036 5.41146 32.4167 5.95833 32.3125 6.53125C32.4167 6.73958 32.4818 6.94792 32.5078 7.15625C32.5339 7.36458 32.612 7.57292 32.7422 7.78125ZM24.7734 29.0703C24.6693 29.0443 24.5911 29.0052 24.5391 28.9531C24.513 28.875 24.4349 28.8229 24.3047 28.7969V29.2266H24.6172L24.7734 29.0703ZM41.2969 41.6484C41.1667 41.8568 41.0104 42.0521 40.8281 42.2344C40.6458 42.3906 40.4766 42.5599 40.3203 42.7422C40.138 42.8203 39.9297 42.8594 39.6953 42.8594C39.487 42.8594 39.2786 42.8594 39.0703 42.8594C38.888 42.8333 38.7057 42.8333 38.5234 42.8594C38.3672 42.8594 38.237 42.9115 38.1328 43.0156C37.9245 42.9635 37.7682 42.8724 37.6641 42.7422C37.5599 42.5859 37.3776 42.4948 37.1172 42.4688C37.013 42.4427 36.9089 42.4427 36.8047 42.4688C36.4141 42.026 36.0495 41.5573 35.7109 41.0625C35.3984 40.5677 35.099 40.099 34.8125 39.6562C34.7865 38.6927 34.7083 37.7161 34.5781 36.7266C34.5521 36.4922 34.513 36.2578 34.4609 36.0234C34.4089 35.7891 34.3698 35.5677 34.3438 35.3594C34.3438 35.099 34.3568 34.8516 34.3828 34.6172C34.4349 34.3568 34.474 34.1224 34.5 33.9141C34.6042 33.1589 34.7214 32.4167 34.8516 31.6875C34.9818 30.9583 35.099 30.2161 35.2031 29.4609C35.3073 28.7839 35.3594 28.0807 35.3594 27.3516C35.3594 26.5964 35.2422 25.8932 35.0078 25.2422L34.9688 25.0469C35.0208 24.8385 35.0729 24.6693 35.125 24.5391C35.2031 24.3828 35.2552 24.2135 35.2812 24.0312C35.3333 23.7448 35.2682 23.5365 35.0859 23.4062C35.1641 23.1979 35.2943 23.0677 35.4766 23.0156C35.6589 22.9375 35.763 22.7812 35.7891 22.5469C35.8151 22.4427 35.8151 22.3385 35.7891 22.2344C35.9974 22.1562 36.2057 22.0911 36.4141 22.0391C36.6484 21.9609 36.8698 21.9479 37.0781 22C37.4167 22.0521 37.7161 22.1693 37.9766 22.3516C38.237 22.5078 38.4844 22.6901 38.7188 22.8984C39.1354 24.1484 39.3047 25.4766 39.2266 26.8828C39.1484 28.263 39.0182 29.6562 38.8359 31.0625C38.6536 32.4688 38.5365 33.849 38.4844 35.2031C38.4323 36.5312 38.6406 37.7682 39.1094 38.9141L39.1875 38.9531C39.3177 38.9792 39.4219 38.9401 39.5 38.8359C39.5781 38.7057 39.6823 38.6536 39.8125 38.6797C39.9167 38.7318 39.9818 38.7578 40.0078 38.7578C40.112 39.2786 40.2812 39.7734 40.5156 40.2422C40.75 40.7109 41.0104 41.1797 41.2969 41.6484ZM78.6406 21.8828C78.5365 22.2214 78.3672 22.5339 78.1328 22.8203L77.4688 23.6406C77.2604 23.901 77.0781 24.1875 76.9219 24.5C76.7917 24.7865 76.7526 25.125 76.8047 25.5156C76.7526 25.5156 76.6875 25.5156 76.6094 25.5156C76.5312 25.4896 76.4661 25.4766 76.4141 25.4766C75.9974 25.4766 75.6719 25.5807 75.4375 25.7891C75.2292 25.9714 74.9427 26.1276 74.5781 26.2578C74.526 26.1016 74.4609 25.9583 74.3828 25.8281C74.3047 25.6719 74.1875 25.5677 74.0312 25.5156C73.4062 25.6458 72.7812 25.75 72.1562 25.8281C71.5312 25.8802 70.9062 25.9583 70.2812 26.0625C69.9948 26.1146 69.7083 26.1927 69.4219 26.2969C69.1354 26.375 68.8359 26.4531 68.5234 26.5312C68.3672 26.5833 68.1979 26.6094 68.0156 26.6094C67.8333 26.5833 67.651 26.5833 67.4688 26.6094C66.8438 26.6354 66.1667 26.6875 65.4375 26.7656C64.7083 26.8177 64.0573 27.013 63.4844 27.3516C63.224 27.2995 62.9505 27.2604 62.6641 27.2344C62.3776 27.2083 62.0911 27.1953 61.8047 27.1953C61.1797 27.1953 60.4896 27.2604 59.7344 27.3906C59.0052 27.4948 58.3542 27.7161 57.7812 28.0547C57.651 28.0026 57.5078 27.9635 57.3516 27.9375C57.2214 27.9115 57.0651 27.8984 56.8828 27.8984C56.8307 27.8984 56.7917 27.9115 56.7656 27.9375C56.7396 27.9375 56.7005 27.9375 56.6484 27.9375C56.6224 28.1719 56.6484 28.4062 56.7266 28.6406C56.8307 28.849 57 29.0182 57.2344 29.1484C57.1302 29.4349 57.0781 29.7474 57.0781 30.0859C57.0781 30.5286 57.1042 30.9714 57.1562 31.4141C57.2344 31.8568 57.2734 32.2995 57.2734 32.7422C57.2734 33.237 57.2083 33.6276 57.0781 33.9141C57.3385 34.6953 57.4688 35.5286 57.4688 36.4141C57.4688 36.7266 57.4427 37.0391 57.3906 37.3516C57.3646 37.638 57.3516 37.9505 57.3516 38.2891C57.3516 38.5755 57.4557 38.8099 57.6641 38.9922C57.8724 39.1484 57.9766 39.3698 57.9766 39.6562C57.9766 39.7604 57.9505 39.8646 57.8984 39.9688C58.263 39.8906 58.6146 39.7865 58.9531 39.6562C59.2917 39.5 59.6432 39.4219 60.0078 39.4219C60.2161 39.4219 60.4115 39.4609 60.5938 39.5391C60.8021 39.6172 60.9844 39.7214 61.1406 39.8516C61.1146 39.9818 61.0885 40.125 61.0625 40.2812C61.0625 40.4375 61.0625 40.5938 61.0625 40.75C61.0625 41.0365 61.0625 41.3099 61.0625 41.5703C61.0885 41.8047 61.1146 42.0651 61.1406 42.3516C60.9323 42.7161 60.6849 43.0417 60.3984 43.3281C60.138 43.6146 59.9557 43.9792 59.8516 44.4219C59.4609 44.4219 59.1094 44.513 58.7969 44.6953C58.5104 44.8516 58.237 45.0339 57.9766 45.2422C57.7161 45.4245 57.4557 45.6068 57.1953 45.7891C56.9349 45.9453 56.6484 46.0234 56.3359 46.0234C55.9453 46.0234 55.6719 45.9714 55.5156 45.8672C55.3594 45.737 55.2422 45.6068 55.1641 45.4766C55.0859 45.3464 55.0078 45.2292 54.9297 45.125C54.8776 45.0208 54.7474 44.9818 54.5391 45.0078C54.487 44.6693 54.3828 44.3568 54.2266 44.0703C54.0703 43.7578 53.901 43.4583 53.7188 43.1719C53.5625 42.8854 53.3932 42.599 53.2109 42.3125C53.0547 42 52.9375 41.6875 52.8594 41.375C52.7031 40.6979 52.638 39.9948 52.6641 39.2656C52.6901 38.5365 52.5729 37.8333 52.3125 37.1562C52.3646 36.7917 52.4036 36.4271 52.4297 36.0625C52.4557 35.6719 52.4688 35.2943 52.4688 34.9297C52.4688 34.2005 52.4427 33.4844 52.3906 32.7812C52.3646 32.0521 52.3385 31.3099 52.3125 30.5547C52.1302 30.3203 52.013 30.0599 51.9609 29.7734C51.9349 29.4609 51.9089 29.1615 51.8828 28.875C51.8047 28.7969 51.7135 28.7188 51.6094 28.6406C51.5312 28.5625 51.4792 28.4583 51.4531 28.3281C51.2448 28.276 51.0885 28.25 50.9844 28.25C50.6198 28.25 50.3073 28.3411 50.0469 28.5234C49.8125 28.6797 49.5911 28.7578 49.3828 28.7578C49.1745 28.7578 48.9792 28.7318 48.7969 28.6797C48.6146 28.6276 48.4323 28.6016 48.25 28.6016C48.0938 28.6016 48.0026 28.6406 47.9766 28.7188C47.9766 28.7708 47.9245 28.8229 47.8203 28.875C47.7422 28.9271 47.5599 28.9792 47.2734 29.0312C46.987 29.0833 46.6615 29.1354 46.2969 29.1875C45.9583 29.2135 45.6198 29.2396 45.2812 29.2656C44.9688 29.2917 44.7604 29.3047 44.6562 29.3047C44.2396 29.3047 43.9271 29.2266 43.7188 29.0703C43.4844 28.888 43.2109 28.6927 42.8984 28.4844C42.9505 28.3281 42.9766 28.224 42.9766 28.1719C42.9766 27.9115 42.8984 27.7031 42.7422 27.5469C42.5859 27.3646 42.5078 27.2083 42.5078 27.0781C42.5078 26.7917 42.625 26.5703 42.8594 26.4141C43.0677 26.2578 43.1849 26.0104 43.2109 25.6719C43.8099 25.4115 44.4219 25.2161 45.0469 25.0859C45.6719 24.9557 46.3099 24.8516 46.9609 24.7734C47.612 24.6953 48.25 24.6042 48.875 24.5C49.526 24.3958 50.1641 24.2266 50.7891 23.9922C50.9714 24.0182 51.1406 24.0443 51.2969 24.0703C51.4792 24.0703 51.6615 24.0703 51.8438 24.0703C52.625 24.0703 53.3932 23.9922 54.1484 23.8359C54.9297 23.6536 55.724 23.5625 56.5312 23.5625C56.7396 23.5625 56.9479 23.5755 57.1562 23.6016C57.3646 23.6276 57.5729 23.6667 57.7812 23.7188C58.8229 23.5625 59.8516 23.3932 60.8672 23.2109C61.9089 23.0286 62.9766 22.8724 64.0703 22.7422C64.5911 22.6901 65.099 22.651 65.5938 22.625C66.1146 22.5729 66.6354 22.5078 67.1562 22.4297C67.3385 22.4036 67.4688 22.3646 67.5469 22.3125C67.651 22.2344 67.7031 22.0911 67.7031 21.8828C67.9375 21.987 68.1979 22.0391 68.4844 22.0391C68.9271 22.0391 69.3568 21.9609 69.7734 21.8047C70.1901 21.6484 70.6198 21.5703 71.0625 21.5703C71.1667 21.5703 71.2578 21.5833 71.3359 21.6094C71.4141 21.6094 71.4922 21.6094 71.5703 21.6094C71.7526 21.6094 71.8438 21.5312 71.8438 21.375C71.8698 21.1927 72 21.0755 72.2344 21.0234C72.4167 20.9714 72.6771 20.9323 73.0156 20.9062C73.3542 20.8802 73.7057 20.8542 74.0703 20.8281C74.4609 20.776 74.8125 20.724 75.125 20.6719C75.4635 20.5938 75.7109 20.4896 75.8672 20.3594L76.1406 19.9297C76.6094 19.9557 76.9479 20.1641 77.1562 20.5547C77.3906 20.9193 77.5208 21.3229 77.5469 21.7656C77.651 21.8698 77.7943 21.9219 77.9766 21.9219C78.1849 21.8958 78.3672 21.8828 78.5234 21.8828H78.6406ZM97.8984 22.1562V22.3125C97.7161 22.3646 97.625 22.4948 97.625 22.7031C97.3385 22.8333 97.0391 22.9375 96.7266 23.0156C96.4141 23.0677 96.1146 23.1589 95.8281 23.2891C95.5417 23.263 95.2422 23.25 94.9297 23.25C94.6432 23.224 94.3568 23.2109 94.0703 23.2109C93.2891 23.2109 92.5078 23.237 91.7266 23.2891C90.9453 23.3411 90.1641 23.3411 89.3828 23.2891C89.0182 23.4974 88.6146 23.6667 88.1719 23.7969C87.7552 23.901 87.3516 23.9531 86.9609 23.9531C86.6484 23.9531 86.375 23.9141 86.1406 23.8359C85.5156 24.1484 84.8255 24.4089 84.0703 24.6172C83.3411 24.8255 82.599 25.0339 81.8438 25.2422C81.0885 25.4245 80.3594 25.6458 79.6562 25.9062C78.9792 26.1406 78.3802 26.4792 77.8594 26.9219C77.8073 27.2865 77.7682 27.651 77.7422 28.0156C77.7161 28.3542 77.7031 28.6927 77.7031 29.0312C77.7031 29.3958 77.7161 29.7344 77.7422 30.0469C77.7943 30.3594 77.8854 30.6719 78.0156 30.9844C78.1458 31.0365 78.2891 31.0755 78.4453 31.1016C78.6276 31.1276 78.7839 31.1406 78.9141 31.1406C79.0443 31.1406 79.1745 31.1276 79.3047 31.1016C79.4349 31.0495 79.526 30.9583 79.5781 30.8281C79.9688 30.776 80.3594 30.763 80.75 30.7891C81.1406 30.7891 81.5312 30.7891 81.9219 30.7891C82.3125 30.7891 82.6901 30.776 83.0547 30.75C83.4453 30.724 83.8229 30.6589 84.1875 30.5547C84.6042 30.4505 85.0078 30.3854 85.3984 30.3594C85.8151 30.3333 86.2188 30.3073 86.6094 30.2812C87 30.2552 87.4036 30.2161 87.8203 30.1641C88.237 30.0859 88.6667 29.9427 89.1094 29.7344C89.4479 29.8646 89.7865 29.9297 90.125 29.9297C90.4896 29.9297 90.8411 29.9557 91.1797 30.0078C91.362 30.138 91.5052 30.2812 91.6094 30.4375C91.7396 30.5938 91.8047 30.776 91.8047 30.9844C91.8047 31.349 91.6745 31.7135 91.4141 32.0781C91.1536 32.4427 90.9453 32.7812 90.7891 33.0938H90.3594C89.7344 33.0938 89.1224 33.1849 88.5234 33.3672C87.9505 33.5234 87.3646 33.7188 86.7656 33.9531C86.1927 34.1615 85.6068 34.3568 85.0078 34.5391C84.4349 34.6953 83.8359 34.7734 83.2109 34.7734C83.1068 34.7734 83.0417 34.8385 83.0156 34.9688C83.0156 35.0729 82.9896 35.151 82.9375 35.2031C82.8073 35.1771 82.612 35.1641 82.3516 35.1641C81.7526 35.1641 81.1797 35.2292 80.6328 35.3594C80.0859 35.4896 79.526 35.5547 78.9531 35.5547C78.7969 35.5547 78.6406 35.5547 78.4844 35.5547C78.3281 35.5286 78.1719 35.5026 78.0156 35.4766C77.8854 35.6849 77.7161 35.8281 77.5078 35.9062C77.2995 35.9583 77.1042 36.0625 76.9219 36.2188C76.8438 36.4531 76.7917 36.7396 76.7656 37.0781C76.7656 37.4167 76.7526 37.7682 76.7266 38.1328C76.7266 38.4714 76.7005 38.7969 76.6484 39.1094C76.5964 39.4219 76.4922 39.6693 76.3359 39.8516C76.362 39.9818 76.4661 40.0339 76.6484 40.0078C76.8307 39.9557 76.9219 40.0339 76.9219 40.2422C76.9219 40.4766 76.8958 40.724 76.8438 40.9844C76.7917 41.2448 76.7656 41.5052 76.7656 41.7656C76.7656 42.2604 76.8177 42.8073 76.9219 43.4062C77.0521 43.9792 77.2344 44.513 77.4688 45.0078C77.7292 45.5026 78.0677 45.9193 78.4844 46.2578C78.901 46.5703 79.4219 46.7266 80.0469 46.7266C80.4635 46.7266 80.8542 46.6484 81.2188 46.4922C81.5833 46.3359 81.8828 46.0755 82.1172 45.7109L82.3125 45.6719C82.4167 45.6719 82.5078 45.6849 82.5859 45.7109C82.6901 45.737 82.7943 45.75 82.8984 45.75C83.0547 45.75 83.25 45.6589 83.4844 45.4766C83.7448 45.2682 84.0182 45.0339 84.3047 44.7734C84.6172 44.513 84.9297 44.2656 85.2422 44.0312C85.5547 43.7708 85.8542 43.5885 86.1406 43.4844C86.3229 43.1198 86.4922 42.7552 86.6484 42.3906C86.8307 42.026 87.0911 41.7396 87.4297 41.5312V40.3984C87.6901 40.112 87.9635 39.8516 88.25 39.6172C88.5625 39.3828 88.7969 39.0833 88.9531 38.7188C89.0833 38.7708 89.2005 38.8099 89.3047 38.8359C89.4349 38.862 89.5651 38.875 89.6953 38.875C89.8255 38.875 89.9557 38.862 90.0859 38.8359C90.2422 38.8099 90.3854 38.7708 90.5156 38.7188C90.724 39.0052 90.8802 39.3307 90.9844 39.6953C91.1146 40.0339 91.2708 40.3594 91.4531 40.6719C91.2188 41.1406 90.9453 41.7005 90.6328 42.3516C90.3203 43.0026 89.9818 43.6536 89.6172 44.3047C89.2526 44.9557 88.862 45.5807 88.4453 46.1797C88.0547 46.7526 87.6641 47.1953 87.2734 47.5078C87.1953 47.5859 87.026 47.6771 86.7656 47.7812C86.4792 47.9896 86.2188 48.1849 85.9844 48.3672C85.75 48.5755 85.5286 48.8099 85.3203 49.0703C84.5651 49.3047 83.8359 49.6172 83.1328 50.0078C82.4557 50.3984 81.7786 50.776 81.1016 51.1406C80.7891 51.0625 80.4505 51.0234 80.0859 51.0234C79.7734 51.0234 79.4609 51.0365 79.1484 51.0625C78.8359 51.1146 78.4974 51.1406 78.1328 51.1406C78.0286 51.0104 77.8724 50.9193 77.6641 50.8672C77.4818 50.8411 77.4167 50.7109 77.4688 50.4766C76.5833 50.4245 75.8672 50.1771 75.3203 49.7344C74.7734 49.3177 74.3047 48.7969 73.9141 48.1719C73.5495 47.5469 73.25 46.8698 73.0156 46.1406C72.7812 45.4115 72.5339 44.7083 72.2734 44.0312V43.9141C72.2734 43.7839 72.3255 43.7057 72.4297 43.6797C72.5339 43.6536 72.5859 43.5755 72.5859 43.4453C72.5859 43.3932 72.5729 43.3542 72.5469 43.3281C72.4688 43.0417 72.4036 42.7943 72.3516 42.5859C72.2995 42.3776 72.2734 42.1302 72.2734 41.8438C72.2734 41.4271 72.2995 41.0234 72.3516 40.6328C72.4036 40.2161 72.4297 39.7995 72.4297 39.3828C72.4297 38.9661 72.3776 38.6016 72.2734 38.2891C72.3776 38.1589 72.4688 37.9896 72.5469 37.7812C72.599 37.5469 72.638 37.3125 72.6641 37.0781C72.6901 36.8438 72.7031 36.6094 72.7031 36.375C72.7292 36.1406 72.7682 35.9323 72.8203 35.75C72.7161 35.4635 72.625 35.2161 72.5469 35.0078C72.4688 34.7734 72.4297 34.5 72.4297 34.1875V33.9141C72.6901 33.4714 72.9115 33.0156 73.0938 32.5469C73.276 32.0781 73.4714 31.5964 73.6797 31.1016V30.9844C73.6797 30.2292 73.6536 29.474 73.6016 28.7188C73.5495 27.9635 73.5234 27.2083 73.5234 26.4531V25.7109C73.5234 25.4505 73.5365 25.2031 73.5625 24.9688C73.7708 24.8646 73.9271 24.7214 74.0312 24.5391C74.1354 24.3568 74.2917 24.2135 74.5 24.1094H75.7891L76.0234 23.7188C76.1016 23.5885 76.1536 23.4453 76.1797 23.2891C76.4661 23.2109 76.7396 23.1068 77 22.9766C77.2865 22.8203 77.5469 22.6641 77.7812 22.5078C78.1458 22.2995 78.4714 22.1172 78.7578 21.9609C79.0703 21.7786 79.3698 21.6354 79.6562 21.5312C79.9688 21.401 80.2943 21.2969 80.6328 21.2188C80.9714 21.1406 81.362 21.0755 81.8047 21.0234C82.013 21.0234 82.1432 20.9844 82.1953 20.9062C82.2734 20.8281 82.3776 20.737 82.5078 20.6328C82.8203 20.6849 83.1328 20.737 83.4453 20.7891C83.7578 20.8151 84.0703 20.8281 84.3828 20.8281C85.0078 20.8281 85.5938 20.7109 86.1406 20.4766C86.9219 20.4766 87.6901 20.4635 88.4453 20.4375C89.2266 20.4115 90.0078 20.3984 90.7891 20.3984C91.4661 20.3984 92.1432 20.4245 92.8203 20.4766C93.4974 20.5286 94.1615 20.6198 94.8125 20.75C95.0469 20.6719 95.3073 20.6328 95.5938 20.6328C95.9062 20.6328 96.2188 20.6719 96.5312 20.75C96.8698 20.8021 97.1953 20.8021 97.5078 20.75C97.5339 21.0365 97.599 21.2839 97.7031 21.4922C97.8333 21.6745 97.8984 21.8958 97.8984 22.1562ZM145.047 32.7031C144.839 33.1198 144.552 33.4453 144.188 33.6797C143.823 33.9141 143.497 34.2135 143.211 34.5781C142.794 34.5521 142.391 34.5 142 34.4219C141.635 34.3438 141.245 34.3047 140.828 34.3047C140.542 34.3047 140.242 34.3568 139.93 34.4609C139.617 34.5391 139.357 34.7214 139.148 35.0078C138.107 34.7995 137.052 34.6953 135.984 34.6953C134.943 34.6693 133.901 34.6302 132.859 34.5781C132.26 34.9427 131.609 35.151 130.906 35.2031C130.229 35.2552 129.565 35.3724 128.914 35.5547C128.81 36.1536 128.706 36.7656 128.602 37.3906C128.497 37.9896 128.445 38.5885 128.445 39.1875C128.445 39.6042 128.497 40.0469 128.602 40.5156C128.706 40.9844 128.94 41.3359 129.305 41.5703C129.279 42.3516 129.279 43.0547 129.305 43.6797C129.331 44.3047 129.201 44.9948 128.914 45.75C128.784 45.6979 128.654 45.6458 128.523 45.5938C128.419 45.5417 128.302 45.5156 128.172 45.5156C127.938 45.5156 127.729 45.6068 127.547 45.7891C127.365 45.9453 127.195 46.1406 127.039 46.375C126.883 46.5833 126.714 46.7917 126.531 47C126.375 47.2083 126.18 47.3516 125.945 47.4297C125.372 47.2734 124.812 47 124.266 46.6094C124.188 46.2448 124.109 45.8932 124.031 45.5547C123.979 45.1901 123.953 44.8255 123.953 44.4609C123.953 44.0443 124.018 43.6016 124.148 43.1328C123.992 42.7422 123.875 42.3516 123.797 41.9609C123.745 41.5703 123.719 41.1667 123.719 40.75C123.719 40.2031 123.758 39.6562 123.836 39.1094C123.914 38.5365 123.953 37.9505 123.953 37.3516C123.953 37.0651 123.94 36.7917 123.914 36.5312C123.888 36.2448 123.823 35.9583 123.719 35.6719C123.25 35.724 122.781 35.75 122.312 35.75C121.87 35.75 121.414 35.763 120.945 35.7891C120.503 35.8151 120.06 35.8802 119.617 35.9844C119.174 36.0625 118.732 36.2057 118.289 36.4141C118.003 36.2318 117.664 36.1406 117.273 36.1406C117.039 36.1406 116.805 36.1667 116.57 36.2188C116.336 36.2708 116.089 36.2969 115.828 36.2969C115.542 36.2969 115.242 36.2318 114.93 36.1016C114.591 35.4245 114.174 34.8255 113.68 34.3047C113.211 33.7578 112.82 33.1458 112.508 32.4688C113.68 32.3125 114.839 32.2083 115.984 32.1562C117.13 32.1042 118.289 32.0521 119.461 32C119.669 32 119.93 32 120.242 32C120.555 31.974 120.867 31.9609 121.18 31.9609C121.518 31.9609 121.844 31.9609 122.156 31.9609C122.469 31.9349 122.716 31.9089 122.898 31.8828C123.107 31.8307 123.263 31.7266 123.367 31.5703C123.471 31.388 123.641 31.2708 123.875 31.2188C123.797 30.5677 123.732 29.8516 123.68 29.0703C123.628 28.2891 123.576 27.5078 123.523 26.7266C123.471 25.9193 123.393 25.138 123.289 24.3828C123.185 23.6276 123.016 22.9505 122.781 22.3516C122.833 22.0651 122.911 21.7917 123.016 21.5312C123.146 21.2708 123.25 20.9844 123.328 20.6719C123.536 20.6458 123.732 20.5807 123.914 20.4766C124.122 20.3724 124.344 20.3203 124.578 20.3203C124.708 20.3203 124.917 20.3854 125.203 20.5156C125.516 20.6198 125.828 20.75 126.141 20.9062C126.479 21.0625 126.792 21.2318 127.078 21.4141C127.365 21.5703 127.547 21.7005 127.625 21.8047V22C127.625 22.4427 127.664 22.8594 127.742 23.25C127.846 23.6146 127.964 23.9922 128.094 24.3828L128.25 24.7734C128.302 24.9036 128.341 25.0339 128.367 25.1641C128.393 25.2943 128.406 25.4375 128.406 25.5938V25.9844C128.406 26.5052 128.367 27.026 128.289 27.5469C128.237 28.0417 128.211 28.5365 128.211 29.0312C128.211 29.2917 128.224 29.6432 128.25 30.0859C128.302 30.5286 128.38 30.8411 128.484 31.0234C128.536 31.1797 128.628 31.2839 128.758 31.3359C128.914 31.362 129.005 31.4531 129.031 31.6094C129.812 31.401 130.646 31.3099 131.531 31.3359C132.417 31.362 133.263 31.349 134.07 31.2969L134.695 31.2188C134.904 31.1927 135.112 31.1536 135.32 31.1016C135.451 31.0755 135.594 31.0365 135.75 30.9844C135.932 30.9323 136.089 30.9062 136.219 30.9062C136.922 30.9062 137.625 30.9844 138.328 31.1406C139.031 31.2708 139.76 31.3359 140.516 31.3359C141.245 31.3359 141.909 31.2318 142.508 31.0234C142.951 31.2318 143.419 31.4531 143.914 31.6875C144.435 31.9219 144.812 32.2604 145.047 32.7031ZM201.766 9.77344C201.557 9.90365 201.336 9.98177 201.102 10.0078C200.867 10.0339 200.62 10.0729 200.359 10.125C200.125 10.151 199.904 10.2031 199.695 10.2812C199.487 10.3594 199.331 10.5026 199.227 10.7109C198.966 10.4505 198.68 10.2292 198.367 10.0469C198.055 9.86458 197.742 9.66927 197.43 9.46094C197.169 9.53906 196.909 9.64323 196.648 9.77344C196.388 9.90365 196.128 9.96875 195.867 9.96875C195.685 9.96875 195.503 9.90365 195.32 9.77344C195.112 9.92969 194.865 10.0599 194.578 10.1641C194.318 10.2422 194.031 10.3203 193.719 10.3984C193.432 10.4766 193.159 10.5807 192.898 10.7109C192.664 10.8411 192.495 11.0365 192.391 11.2969C192.339 11.1667 192.208 11.1276 192 11.1797C191.818 11.2318 191.714 11.1667 191.688 10.9844C190.854 11.2708 190.008 11.5182 189.148 11.7266C188.289 11.9349 187.43 12.1562 186.57 12.3906C185.711 12.625 184.865 12.8854 184.031 13.1719C183.198 13.4583 182.391 13.8099 181.609 14.2266C181.583 14.2526 181.57 14.2917 181.57 14.3438C181.57 14.6042 181.609 14.8516 181.688 15.0859C181.766 15.3203 181.831 15.5417 181.883 15.75C181.414 17.3385 181.102 18.9531 180.945 20.5938C180.789 22.2344 180.581 23.849 180.32 25.4375V25.5938C180.32 25.724 180.372 25.8281 180.477 25.9062C180.581 25.9583 180.633 26.0625 180.633 26.2188L180.594 26.2969C180.464 26.375 180.372 26.4922 180.32 26.6484C180.268 26.7786 180.242 26.9219 180.242 27.0781C180.242 27.1823 180.268 27.3385 180.32 27.5469C179.878 29.0312 179.578 30.5417 179.422 32.0781C179.292 33.6146 179.122 35.151 178.914 36.6875L178.562 39.2656C178.51 39.4219 178.458 39.5781 178.406 39.7344C178.38 39.8646 178.367 40.0078 178.367 40.1641C178.367 40.9974 178.419 41.8177 178.523 42.625C178.654 43.4062 178.693 44.2135 178.641 45.0469C178.875 45.4115 178.992 45.763 178.992 46.1016C178.992 46.2318 178.979 46.362 178.953 46.4922C178.953 46.6224 178.94 46.7526 178.914 46.8828C179.253 47.2214 179.643 47.4557 180.086 47.5859C180.555 47.7422 180.971 47.9766 181.336 48.2891V48.4453C181.336 48.7057 181.297 48.9531 181.219 49.1875C181.141 49.4479 181.076 49.7083 181.023 49.9688C180.971 50.1771 180.906 50.4766 180.828 50.8672C180.776 51.2578 180.698 51.5182 180.594 51.6484C180.464 51.8307 180.268 51.987 180.008 52.1172C179.773 52.2734 179.539 52.3516 179.305 52.3516C179.227 52.3516 179.109 52.3125 178.953 52.2344C178.823 52.1562 178.719 52.0911 178.641 52.0391C178.51 52.0391 178.341 52.1042 178.133 52.2344C177.924 52.3646 177.716 52.4297 177.508 52.4297C177.404 52.4297 177.312 52.4167 177.234 52.3906C177.156 52.3906 177.065 52.3646 176.961 52.3125C176.857 52.0521 176.701 51.8177 176.492 51.6094C176.31 51.4271 176.089 51.2448 175.828 51.0625C175.854 50.6979 175.789 50.4245 175.633 50.2422C175.477 50.0599 175.32 49.8255 175.164 49.5391C175.112 49.1745 175.06 48.7578 175.008 48.2891C174.982 47.8203 174.786 47.4818 174.422 47.2734C174.552 47.0911 174.617 46.8438 174.617 46.5312C174.617 46.401 174.591 46.2578 174.539 46.1016C174.513 45.9453 174.435 45.8281 174.305 45.75V45.6719C174.279 45.5417 174.318 45.4505 174.422 45.3984C174.552 45.3203 174.617 45.2161 174.617 45.0859V44.9297C174.435 44.0964 174.344 43.224 174.344 42.3125C174.344 41.4531 174.37 40.6068 174.422 39.7734C174.474 38.9141 174.474 38.0547 174.422 37.1953C174.578 37.0651 174.695 36.8568 174.773 36.5703C174.878 36.2839 174.956 35.9714 175.008 35.6328C175.06 35.2943 175.086 34.9688 175.086 34.6562C175.112 34.3177 175.138 34.0443 175.164 33.8359C175.294 32.3516 175.503 30.8932 175.789 29.4609C176.076 28.0026 176.245 26.5182 176.297 25.0078C176.427 24.7995 176.505 24.526 176.531 24.1875C176.557 23.849 176.57 23.4974 176.57 23.1328C176.57 22.7422 176.596 22.3646 176.648 22C176.701 21.6354 176.805 21.3229 176.961 21.0625C176.961 20.3333 177.026 19.6042 177.156 18.875C177.286 18.1198 177.352 17.3646 177.352 16.6094C177.352 16.2448 177.312 15.8672 177.234 15.4766C176.974 15.3724 176.74 15.3203 176.531 15.3203C176.245 15.3203 175.945 15.3854 175.633 15.5156C175.346 15.6198 175.138 15.7891 175.008 16.0234C174.435 16.0495 173.875 16.1406 173.328 16.2969C172.781 16.4531 172.234 16.5312 171.688 16.5312H171.297C171.193 16.5312 171.076 16.5182 170.945 16.4922C170.763 16.5703 170.568 16.6354 170.359 16.6875C170.177 16.7396 170.099 16.8958 170.125 17.1562C169.318 17.2344 168.523 17.4036 167.742 17.6641C166.987 17.9245 166.232 18.2109 165.477 18.5234C164.721 18.8099 163.966 19.0833 163.211 19.3438C162.43 19.6042 161.635 19.7734 160.828 19.8516C160.542 19.9818 160.359 20.2552 160.281 20.6719C159.708 20.6198 159.227 20.4766 158.836 20.2422C158.445 20.0078 157.99 19.7865 157.469 19.5781C157.312 19.0312 157.234 18.5104 157.234 18.0156C157.234 17.3646 157.365 16.7396 157.625 16.1406C157.885 15.5417 158.302 15.099 158.875 14.8125C159.005 14.8385 159.122 14.8646 159.227 14.8906C159.331 14.8906 159.448 14.8906 159.578 14.8906C159.995 14.8906 160.411 14.8125 160.828 14.6562C161.245 14.5 161.674 14.4219 162.117 14.4219C162.247 14.4219 162.391 14.4609 162.547 14.5391C162.729 14.4349 162.964 14.3568 163.25 14.3047C163.51 14.2266 163.758 14.1615 163.992 14.1094C164.253 14.0312 164.487 13.9271 164.695 13.7969C164.904 13.6667 165.034 13.4844 165.086 13.25C165.216 13.3542 165.359 13.4193 165.516 13.4453C165.672 13.4714 165.828 13.4844 165.984 13.4844C166.323 13.4844 166.674 13.4193 167.039 13.2891C167.404 13.1589 167.69 12.9505 167.898 12.6641C168.081 12.8724 168.341 12.9766 168.68 12.9766C169.044 12.9766 169.396 12.8854 169.734 12.7031C170.099 12.4948 170.451 12.3906 170.789 12.3906C171.049 12.3906 171.245 12.4818 171.375 12.6641C171.661 12.4297 172 12.2474 172.391 12.1172C172.781 11.987 173.172 11.8698 173.562 11.7656C173.979 11.6615 174.357 11.5443 174.695 11.4141C175.06 11.2839 175.346 11.1016 175.555 10.8672C175.685 10.8932 175.893 10.9062 176.18 10.9062C176.622 10.9062 177.039 10.8542 177.43 10.75C177.846 10.6198 178.263 10.5026 178.68 10.3984L179.5 10.3203C179.708 10.2943 179.891 10.2292 180.047 10.125C180.229 10.0208 180.411 9.92969 180.594 9.85156C180.776 9.77344 180.958 9.70833 181.141 9.65625C181.349 9.60417 181.596 9.59115 181.883 9.61719C182.508 9.27865 183.172 9.01823 183.875 8.83594C184.578 8.65365 185.294 8.4974 186.023 8.36719C186.753 8.21094 187.469 8.04167 188.172 7.85938C188.875 7.65104 189.539 7.35156 190.164 6.96094H190.281C190.802 6.96094 191.31 6.86979 191.805 6.6875C192.326 6.50521 192.807 6.25781 193.25 5.94531C193.328 5.97135 193.406 5.98438 193.484 5.98438H193.758C194.487 5.98438 195.19 5.88021 195.867 5.67188C196.57 5.46354 197.299 5.35938 198.055 5.35938C198.497 5.35938 198.849 5.42448 199.109 5.55469C199.37 5.65885 199.604 5.80208 199.812 5.98438C200.021 6.14062 200.242 6.29688 200.477 6.45312C200.711 6.60938 201.01 6.72656 201.375 6.80469C201.609 7.2474 201.727 7.72917 201.727 8.25C201.727 8.74479 201.74 9.2526 201.766 9.77344ZM210.516 20.125C210.516 20.3594 210.411 20.5547 210.203 20.7109C210.021 20.8672 209.93 20.9844 209.93 21.0625C209.93 21.2188 209.956 21.3359 210.008 21.4141C210.06 21.4661 210.086 21.5312 210.086 21.6094V21.8047C209.826 22.0651 209.63 22.3516 209.5 22.6641C209.37 22.9505 209.266 23.263 209.188 23.6016C209.109 23.9141 209.031 24.2396 208.953 24.5781C208.901 24.9167 208.823 25.2422 208.719 25.5547C208.589 25.8672 208.419 26.1406 208.211 26.375C208.003 26.5833 207.833 26.8307 207.703 27.1172C207.495 27.5859 207.339 28.0677 207.234 28.5625C207.13 29.0573 206.909 29.513 206.57 29.9297V30.125C206.544 30.3073 206.596 30.4635 206.727 30.5938C206.232 31.2448 205.841 32.026 205.555 32.9375C205.268 33.8229 205.034 34.7604 204.852 35.75C204.669 36.7135 204.513 37.6901 204.383 38.6797C204.253 39.6432 204.096 40.5156 203.914 41.2969C204.044 41.8698 204.24 42.4167 204.5 42.9375C204.786 43.4323 205.06 43.9531 205.32 44.5C205.841 44.6302 206.336 44.8125 206.805 45.0469C207.299 45.2812 207.651 45.6589 207.859 46.1797C207.807 46.7005 207.638 47.1042 207.352 47.3906C207.065 47.6771 206.714 47.9766 206.297 48.2891C206.01 48.1849 205.776 48.0938 205.594 48.0156C205.411 47.9635 205.138 47.9635 204.773 48.0156C204.279 47.625 203.81 47.3125 203.367 47.0781C202.951 46.8438 202.573 46.4401 202.234 45.8672C202.182 45.7891 202.104 45.75 202 45.75H201.648C201.518 45.4375 201.362 45.112 201.18 44.7734C200.997 44.4089 200.815 44.0443 200.633 43.6797C200.451 43.2891 200.294 42.9115 200.164 42.5469C200.034 42.1562 199.969 41.8047 199.969 41.4922C199.969 40.1641 200.086 38.849 200.32 37.5469C200.581 36.2188 200.711 34.8776 200.711 33.5234V33.1328C200.19 33.263 199.669 33.4453 199.148 33.6797C198.654 33.9141 198.146 34.0964 197.625 34.2266C197.443 34.2786 197.339 34.3698 197.312 34.5C197.286 34.6302 197.208 34.7344 197.078 34.8125C196.818 34.8385 196.57 34.8646 196.336 34.8906C196.102 34.8906 195.88 34.8906 195.672 34.8906C195.229 34.8906 194.76 34.8776 194.266 34.8516C193.797 34.7995 193.328 34.7083 192.859 34.5781C192.391 34.4479 191.948 34.2656 191.531 34.0312C191.141 33.7969 190.789 33.4974 190.477 33.1328C190.424 33.1589 190.359 33.1849 190.281 33.2109C190.203 33.237 190.125 33.25 190.047 33.25C189.969 33.25 189.891 33.237 189.812 33.2109C189.734 33.1849 189.669 33.1589 189.617 33.1328C189.409 32.8464 189.24 32.5339 189.109 32.1953L188.719 31.1797C188.589 30.8411 188.445 30.5156 188.289 30.2031C188.133 29.8906 187.924 29.6042 187.664 29.3438C187.586 28.875 187.547 28.4193 187.547 27.9766C187.547 27.5078 187.586 27.0521 187.664 26.6094C187.716 26.1667 187.807 25.724 187.938 25.2812C187.833 24.9688 187.768 24.6432 187.742 24.3047C187.69 23.9661 187.664 23.6276 187.664 23.2891C187.664 22.8984 187.703 22.4948 187.781 22.0781C187.859 21.6615 187.99 21.2839 188.172 20.9453C188.354 20.5807 188.615 20.2812 188.953 20.0469C189.266 19.8125 189.656 19.6953 190.125 19.6953C190.646 19.6953 191.128 19.8385 191.57 20.125C192.013 20.3854 192.443 20.6589 192.859 20.9453C192.911 21.2578 192.951 21.5703 192.977 21.8828C193.003 22.1693 193.016 22.4818 193.016 22.8203C193.016 23.4453 192.977 24.0833 192.898 24.7344C192.846 25.3594 192.82 25.9974 192.82 26.6484C192.82 27.3255 192.898 27.9635 193.055 28.5625C193.237 29.1354 193.549 29.6823 193.992 30.2031H194.148C194.357 30.1771 194.539 30.2161 194.695 30.3203C194.852 30.4245 195.034 30.4766 195.242 30.4766C195.424 30.4766 195.568 30.4115 195.672 30.2812C195.776 30.125 195.906 30.0469 196.062 30.0469C196.219 30.0469 196.336 30.0729 196.414 30.125C196.492 30.1771 196.557 30.2031 196.609 30.2031C196.896 30.2031 197.221 30.099 197.586 29.8906C197.951 29.6823 198.185 29.4479 198.289 29.1875C198.393 29.2656 198.523 29.3047 198.68 29.3047C198.888 29.3047 199.083 29.2396 199.266 29.1094C199.448 28.9792 199.682 28.9141 199.969 28.9141C200.125 28.9141 200.177 28.8229 200.125 28.6406C200.099 28.4323 200.151 28.3021 200.281 28.25C200.594 28.1198 200.932 27.9375 201.297 27.7031C201.688 27.4427 202 27.2865 202.234 27.2344C202.365 26.8958 202.521 26.5833 202.703 26.2969C202.911 25.9844 203.12 25.6979 203.328 25.4375C203.406 24.8385 203.562 24.2656 203.797 23.7188C204.031 23.1719 204.279 22.625 204.539 22.0781C204.799 21.5312 205.047 20.9844 205.281 20.4375C205.516 19.8906 205.672 19.3177 205.75 18.7188C206.036 18.4323 206.258 18.1198 206.414 17.7812C206.596 17.4427 206.753 17.1042 206.883 16.7656C207.143 16.6875 207.469 16.6484 207.859 16.6484C208.25 16.6224 208.589 16.6094 208.875 16.6094H209.539C209.617 16.7656 209.721 16.9089 209.852 17.0391L210.242 17.4297C210.008 17.7943 209.891 18.1589 209.891 18.5234C209.891 18.8099 209.956 19.0964 210.086 19.3828C210.216 19.6432 210.359 19.8906 210.516 20.125ZM241.727 25.2812C241.727 25.6458 241.714 26.0104 241.688 26.375C241.661 26.7396 241.622 27.1042 241.57 27.4688C241.388 27.7292 241.206 27.9635 241.023 28.1719C240.867 28.3542 240.763 28.5885 240.711 28.875C240.424 29.0833 240.099 29.3698 239.734 29.7344C239.396 30.099 239.253 30.4635 239.305 30.8281H238.758C238.445 31.2969 238.081 31.7005 237.664 32.0391C237.247 32.3776 236.805 32.7031 236.336 33.0156L234.969 33.9141C234.526 34.2005 234.109 34.5391 233.719 34.9297C233.51 34.9557 233.341 34.9948 233.211 35.0469C233.081 35.099 232.911 35.112 232.703 35.0859C231.896 35.6068 231.049 36.0625 230.164 36.4531C229.305 36.8438 228.432 37.2344 227.547 37.625C226.688 37.9896 225.828 38.3802 224.969 38.7969C224.109 39.2135 223.289 39.6953 222.508 40.2422C222.43 40.2161 222.326 40.2031 222.195 40.2031C221.961 40.2031 221.727 40.2422 221.492 40.3203C221.258 40.3724 221.023 40.3984 220.789 40.3984C220.685 40.3984 220.542 40.3854 220.359 40.3594C220.203 40.3333 220.086 40.2943 220.008 40.2422C219.878 40.1641 219.76 40.0469 219.656 39.8906C219.552 39.7344 219.474 39.5651 219.422 39.3828C219.37 39.1745 219.331 38.9792 219.305 38.7969C219.279 38.6146 219.266 38.4583 219.266 38.3281C219.266 38.1719 219.279 38.0026 219.305 37.8203C219.331 37.638 219.37 37.4688 219.422 37.3125C220.177 37.2604 220.932 37.0651 221.688 36.7266C222.469 36.388 223.211 36.0625 223.914 35.75C224.096 35.6719 224.24 35.5807 224.344 35.4766C224.474 35.3464 224.604 35.2422 224.734 35.1641C224.865 35.0599 225.008 34.9688 225.164 34.8906C225.32 34.8125 225.516 34.7734 225.75 34.7734H225.867C227.508 34.0182 229.109 33.1979 230.672 32.3125C232.26 31.4271 233.836 30.5286 235.398 29.6172C235.477 29.3828 235.594 29.1484 235.75 28.9141C235.932 28.6797 236.102 28.4583 236.258 28.25C236.414 28.0156 236.557 27.7812 236.688 27.5469C236.818 27.3125 236.883 27.0781 236.883 26.8438C236.883 26.375 236.661 25.9844 236.219 25.6719H236.062C235.75 25.6719 235.477 25.6328 235.242 25.5547C235.008 25.4505 234.786 25.3594 234.578 25.2812C234.37 25.1771 234.135 25.099 233.875 25.0469C233.615 24.9688 233.315 24.9427 232.977 24.9688C232.846 24.8646 232.638 24.7734 232.352 24.6953C232.065 24.6172 231.831 24.5781 231.648 24.5781C230.711 24.5781 229.786 24.6432 228.875 24.7734C227.964 24.8776 227.052 24.9427 226.141 24.9688C225.906 25.099 225.685 25.2161 225.477 25.3203C225.268 25.4245 225.021 25.4766 224.734 25.4766C224.604 25.4766 224.487 25.4766 224.383 25.4766C224.279 25.4505 224.161 25.4245 224.031 25.3984C223.536 25.6068 222.977 25.7891 222.352 25.9453C221.727 26.0755 221.102 26.2448 220.477 26.4531C219.878 26.6354 219.318 26.8698 218.797 27.1562C218.276 27.4427 217.872 27.8333 217.586 28.3281C217.586 28.4583 217.612 28.5755 217.664 28.6797C217.716 28.7578 217.742 28.862 217.742 28.9922V29.1484C217.586 29.3047 217.482 29.487 217.43 29.6953C217.378 29.8776 217.339 30.0729 217.312 30.2812C217.286 30.4635 217.247 30.6589 217.195 30.8672C217.169 31.0495 217.078 31.2318 216.922 31.4141C217.026 31.8047 217.078 32.2344 217.078 32.7031C217.078 33.224 217.039 33.7448 216.961 34.2656C216.909 34.7865 216.883 35.3073 216.883 35.8281C216.883 36.3229 216.935 36.7656 217.039 37.1562C216.883 37.3125 216.818 37.5469 216.844 37.8594C216.87 38.1719 216.805 38.4062 216.648 38.5625C216.648 38.7708 216.701 38.9141 216.805 38.9922C216.935 39.0703 217.013 39.2005 217.039 39.3828C216.935 39.8255 216.883 40.3073 216.883 40.8281C216.883 41.5833 216.961 42.3516 217.117 43.1328C217.299 43.9141 217.508 44.6823 217.742 45.4375C218.159 45.3073 218.602 45.2031 219.07 45.125C219.565 45.0208 220.034 44.9688 220.477 44.9688C220.555 44.9688 220.633 44.9818 220.711 45.0078C220.789 45.0078 220.867 45.0078 220.945 45.0078C220.997 45.2943 221.102 45.5547 221.258 45.7891C221.414 46.0234 221.557 46.2839 221.688 46.5703C221.557 46.7526 221.44 46.8958 221.336 47C221.258 47.1302 221.219 47.2995 221.219 47.5078C220.854 47.5339 220.555 47.625 220.32 47.7812C220.086 47.9635 219.826 48.1589 219.539 48.3672H219.383C218.94 48.3672 218.576 48.4453 218.289 48.6016C218.003 48.7839 217.677 48.9792 217.312 49.1875C217 49.0573 216.688 48.9922 216.375 48.9922C216.036 48.9922 215.698 49.0573 215.359 49.1875C214.943 49.0052 214.604 48.7188 214.344 48.3281C214.083 47.9635 213.862 47.5469 213.68 47.0781C213.497 46.6354 213.328 46.1797 213.172 45.7109C213.042 45.2422 212.885 44.8125 212.703 44.4219V43.7969C212.703 43.1979 212.651 42.625 212.547 42.0781C212.469 41.5052 212.43 40.9193 212.43 40.3203C212.43 40.0859 212.443 39.8385 212.469 39.5781C212.521 39.3177 212.599 39.0703 212.703 38.8359C212.651 38.6016 212.625 38.3802 212.625 38.1719V37.4297C212.625 36.6484 212.651 35.8672 212.703 35.0859C212.781 34.3047 212.82 33.5234 212.82 32.7422C212.82 32.1693 212.781 31.5833 212.703 30.9844C212.573 31.0365 212.456 31.0885 212.352 31.1406C212.247 31.1927 212.13 31.2188 212 31.2188C211.87 31.2188 211.74 31.2057 211.609 31.1797C211.505 31.1536 211.401 31.1276 211.297 31.1016C211.036 30.8672 210.854 30.5807 210.75 30.2422C210.646 29.9036 210.503 29.5911 210.32 29.3047C210.32 28.8099 210.398 28.4062 210.555 28.0938C210.685 27.7552 210.854 27.4557 211.062 27.1953C211.271 26.9089 211.479 26.6354 211.688 26.375C211.922 26.1146 212.117 25.7891 212.273 25.3984H212.43C212.846 25.3984 213.263 25.2682 213.68 25.0078C214.096 24.7214 214.565 24.5781 215.086 24.5781C215.268 24.3438 215.516 24.1484 215.828 23.9922C216.141 23.8099 216.466 23.6667 216.805 23.5625C217.169 23.4583 217.521 23.3932 217.859 23.3672C218.224 23.3151 218.562 23.2891 218.875 23.2891C218.979 23.1068 219.135 22.9896 219.344 22.9375C219.552 22.8594 219.76 22.7943 219.969 22.7422C220.203 22.6641 220.411 22.599 220.594 22.5469C220.802 22.4688 220.971 22.3385 221.102 22.1562C221.31 22.2083 221.505 22.2344 221.688 22.2344C222.026 22.2344 222.352 22.1953 222.664 22.1172C222.977 22.013 223.289 21.9089 223.602 21.8047C223.914 21.6745 224.227 21.5573 224.539 21.4531C224.878 21.349 225.229 21.2969 225.594 21.2969C225.724 21.2969 225.854 21.3099 225.984 21.3359C226.115 21.3359 226.245 21.3359 226.375 21.3359C226.583 21.3359 226.701 21.2578 226.727 21.1016C226.779 20.9453 226.87 20.8281 227 20.75C227.078 20.776 227.221 20.7891 227.43 20.7891C227.951 20.7891 228.458 20.75 228.953 20.6719C229.448 20.5677 229.956 20.5156 230.477 20.5156C230.711 20.5156 230.945 20.5286 231.18 20.5547C231.414 20.5807 231.648 20.6458 231.883 20.75C231.935 20.6719 231.987 20.6068 232.039 20.5547C232.091 20.5026 232.13 20.4375 232.156 20.3594C233.432 20.4375 234.63 20.6979 235.75 21.1406C236.896 21.5833 238.081 21.974 239.305 22.3125C239.461 22.5469 239.643 22.7552 239.852 22.9375L240.516 23.4844C240.75 23.6667 240.971 23.849 241.18 24.0312C241.388 24.2135 241.57 24.4349 241.727 24.6953V25.2812ZM267.742 22.1562V22.3125C267.56 22.3646 267.469 22.4948 267.469 22.7031C267.182 22.8333 266.883 22.9375 266.57 23.0156C266.258 23.0677 265.958 23.1589 265.672 23.2891C265.385 23.263 265.086 23.25 264.773 23.25C264.487 23.224 264.201 23.2109 263.914 23.2109C263.133 23.2109 262.352 23.237 261.57 23.2891C260.789 23.3411 260.008 23.3411 259.227 23.2891C258.862 23.4974 258.458 23.6667 258.016 23.7969C257.599 23.901 257.195 23.9531 256.805 23.9531C256.492 23.9531 256.219 23.9141 255.984 23.8359C255.359 24.1484 254.669 24.4089 253.914 24.6172C253.185 24.8255 252.443 25.0339 251.688 25.2422C250.932 25.4245 250.203 25.6458 249.5 25.9062C248.823 26.1406 248.224 26.4792 247.703 26.9219C247.651 27.2865 247.612 27.651 247.586 28.0156C247.56 28.3542 247.547 28.6927 247.547 29.0312C247.547 29.3958 247.56 29.7344 247.586 30.0469C247.638 30.3594 247.729 30.6719 247.859 30.9844C247.99 31.0365 248.133 31.0755 248.289 31.1016C248.471 31.1276 248.628 31.1406 248.758 31.1406C248.888 31.1406 249.018 31.1276 249.148 31.1016C249.279 31.0495 249.37 30.9583 249.422 30.8281C249.812 30.776 250.203 30.763 250.594 30.7891C250.984 30.7891 251.375 30.7891 251.766 30.7891C252.156 30.7891 252.534 30.776 252.898 30.75C253.289 30.724 253.667 30.6589 254.031 30.5547C254.448 30.4505 254.852 30.3854 255.242 30.3594C255.659 30.3333 256.062 30.3073 256.453 30.2812C256.844 30.2552 257.247 30.2161 257.664 30.1641C258.081 30.0859 258.51 29.9427 258.953 29.7344C259.292 29.8646 259.63 29.9297 259.969 29.9297C260.333 29.9297 260.685 29.9557 261.023 30.0078C261.206 30.138 261.349 30.2812 261.453 30.4375C261.583 30.5938 261.648 30.776 261.648 30.9844C261.648 31.349 261.518 31.7135 261.258 32.0781C260.997 32.4427 260.789 32.7812 260.633 33.0938H260.203C259.578 33.0938 258.966 33.1849 258.367 33.3672C257.794 33.5234 257.208 33.7188 256.609 33.9531C256.036 34.1615 255.451 34.3568 254.852 34.5391C254.279 34.6953 253.68 34.7734 253.055 34.7734C252.951 34.7734 252.885 34.8385 252.859 34.9688C252.859 35.0729 252.833 35.151 252.781 35.2031C252.651 35.1771 252.456 35.1641 252.195 35.1641C251.596 35.1641 251.023 35.2292 250.477 35.3594C249.93 35.4896 249.37 35.5547 248.797 35.5547C248.641 35.5547 248.484 35.5547 248.328 35.5547C248.172 35.5286 248.016 35.5026 247.859 35.4766C247.729 35.6849 247.56 35.8281 247.352 35.9062C247.143 35.9583 246.948 36.0625 246.766 36.2188C246.688 36.4531 246.635 36.7396 246.609 37.0781C246.609 37.4167 246.596 37.7682 246.57 38.1328C246.57 38.4714 246.544 38.7969 246.492 39.1094C246.44 39.4219 246.336 39.6693 246.18 39.8516C246.206 39.9818 246.31 40.0339 246.492 40.0078C246.674 39.9557 246.766 40.0339 246.766 40.2422C246.766 40.4766 246.74 40.724 246.688 40.9844C246.635 41.2448 246.609 41.5052 246.609 41.7656C246.609 42.2604 246.661 42.8073 246.766 43.4062C246.896 43.9792 247.078 44.513 247.312 45.0078C247.573 45.5026 247.911 45.9193 248.328 46.2578C248.745 46.5703 249.266 46.7266 249.891 46.7266C250.307 46.7266 250.698 46.6484 251.062 46.4922C251.427 46.3359 251.727 46.0755 251.961 45.7109L252.156 45.6719C252.26 45.6719 252.352 45.6849 252.43 45.7109C252.534 45.737 252.638 45.75 252.742 45.75C252.898 45.75 253.094 45.6589 253.328 45.4766C253.589 45.2682 253.862 45.0339 254.148 44.7734C254.461 44.513 254.773 44.2656 255.086 44.0312C255.398 43.7708 255.698 43.5885 255.984 43.4844C256.167 43.1198 256.336 42.7552 256.492 42.3906C256.674 42.026 256.935 41.7396 257.273 41.5312V40.3984C257.534 40.112 257.807 39.8516 258.094 39.6172C258.406 39.3828 258.641 39.0833 258.797 38.7188C258.927 38.7708 259.044 38.8099 259.148 38.8359C259.279 38.862 259.409 38.875 259.539 38.875C259.669 38.875 259.799 38.862 259.93 38.8359C260.086 38.8099 260.229 38.7708 260.359 38.7188C260.568 39.0052 260.724 39.3307 260.828 39.6953C260.958 40.0339 261.115 40.3594 261.297 40.6719C261.062 41.1406 260.789 41.7005 260.477 42.3516C260.164 43.0026 259.826 43.6536 259.461 44.3047C259.096 44.9557 258.706 45.5807 258.289 46.1797C257.898 46.7526 257.508 47.1953 257.117 47.5078C257.039 47.5859 256.87 47.6771 256.609 47.7812C256.323 47.9896 256.062 48.1849 255.828 48.3672C255.594 48.5755 255.372 48.8099 255.164 49.0703C254.409 49.3047 253.68 49.6172 252.977 50.0078C252.299 50.3984 251.622 50.776 250.945 51.1406C250.633 51.0625 250.294 51.0234 249.93 51.0234C249.617 51.0234 249.305 51.0365 248.992 51.0625C248.68 51.1146 248.341 51.1406 247.977 51.1406C247.872 51.0104 247.716 50.9193 247.508 50.8672C247.326 50.8411 247.26 50.7109 247.312 50.4766C246.427 50.4245 245.711 50.1771 245.164 49.7344C244.617 49.3177 244.148 48.7969 243.758 48.1719C243.393 47.5469 243.094 46.8698 242.859 46.1406C242.625 45.4115 242.378 44.7083 242.117 44.0312V43.9141C242.117 43.7839 242.169 43.7057 242.273 43.6797C242.378 43.6536 242.43 43.5755 242.43 43.4453C242.43 43.3932 242.417 43.3542 242.391 43.3281C242.312 43.0417 242.247 42.7943 242.195 42.5859C242.143 42.3776 242.117 42.1302 242.117 41.8438C242.117 41.4271 242.143 41.0234 242.195 40.6328C242.247 40.2161 242.273 39.7995 242.273 39.3828C242.273 38.9661 242.221 38.6016 242.117 38.2891C242.221 38.1589 242.312 37.9896 242.391 37.7812C242.443 37.5469 242.482 37.3125 242.508 37.0781C242.534 36.8438 242.547 36.6094 242.547 36.375C242.573 36.1406 242.612 35.9323 242.664 35.75C242.56 35.4635 242.469 35.2161 242.391 35.0078C242.312 34.7734 242.273 34.5 242.273 34.1875V33.9141C242.534 33.4714 242.755 33.0156 242.938 32.5469C243.12 32.0781 243.315 31.5964 243.523 31.1016V30.9844C243.523 30.2292 243.497 29.474 243.445 28.7188C243.393 27.9635 243.367 27.2083 243.367 26.4531V25.7109C243.367 25.4505 243.38 25.2031 243.406 24.9688C243.615 24.8646 243.771 24.7214 243.875 24.5391C243.979 24.3568 244.135 24.2135 244.344 24.1094H245.633L245.867 23.7188C245.945 23.5885 245.997 23.4453 246.023 23.2891C246.31 23.2109 246.583 23.1068 246.844 22.9766C247.13 22.8203 247.391 22.6641 247.625 22.5078C247.99 22.2995 248.315 22.1172 248.602 21.9609C248.914 21.7786 249.214 21.6354 249.5 21.5312C249.812 21.401 250.138 21.2969 250.477 21.2188C250.815 21.1406 251.206 21.0755 251.648 21.0234C251.857 21.0234 251.987 20.9844 252.039 20.9062C252.117 20.8281 252.221 20.737 252.352 20.6328C252.664 20.6849 252.977 20.737 253.289 20.7891C253.602 20.8151 253.914 20.8281 254.227 20.8281C254.852 20.8281 255.438 20.7109 255.984 20.4766C256.766 20.4766 257.534 20.4635 258.289 20.4375C259.07 20.4115 259.852 20.3984 260.633 20.3984C261.31 20.3984 261.987 20.4245 262.664 20.4766C263.341 20.5286 264.005 20.6198 264.656 20.75C264.891 20.6719 265.151 20.6328 265.438 20.6328C265.75 20.6328 266.062 20.6719 266.375 20.75C266.714 20.8021 267.039 20.8021 267.352 20.75C267.378 21.0365 267.443 21.2839 267.547 21.4922C267.677 21.6745 267.742 21.8958 267.742 22.1562ZM297.43 45.5547C297.43 45.8151 297.417 46.0104 297.391 46.1406C297.26 46.1927 297.156 46.2708 297.078 46.375C297 46.4531 296.87 46.4792 296.688 46.4531C296.635 46.8438 296.505 47.1693 296.297 47.4297C296.089 47.6901 295.867 47.9245 295.633 48.1328C295.424 48.3672 295.216 48.6016 295.008 48.8359C294.799 49.0964 294.669 49.4219 294.617 49.8125C294.227 50.0208 293.836 50.2943 293.445 50.6328C293.081 50.9974 292.755 51.2448 292.469 51.375C292.26 51.4792 292.039 51.5573 291.805 51.6094C291.57 51.6875 291.336 51.7786 291.102 51.8828C290.346 52.2214 289.565 52.5729 288.758 52.9375C287.977 53.3021 287.156 53.4844 286.297 53.4844H286.023C285.919 53.5885 285.789 53.6536 285.633 53.6797C285.477 53.7318 285.32 53.7708 285.164 53.7969C285.008 53.8229 284.852 53.862 284.695 53.9141C284.539 53.9661 284.422 54.0443 284.344 54.1484C284.057 54.0443 283.745 53.9922 283.406 53.9922H283.133C282.69 54.0964 282.273 54.1745 281.883 54.2266C281.492 54.2786 281.076 54.3047 280.633 54.3047C279.852 54.3047 279.07 54.2526 278.289 54.1484C277.508 54.0443 276.727 53.9531 275.945 53.875C275.451 53.4844 275.047 52.9896 274.734 52.3906C274.422 51.8177 274.266 51.2057 274.266 50.5547C274.266 50.0599 274.37 49.5911 274.578 49.1484C274.786 48.7318 275.06 48.3542 275.398 48.0156H275.516C275.75 48.0156 275.984 47.9635 276.219 47.8594C276.479 47.7552 276.727 47.7031 276.961 47.7031C277.221 47.7031 277.43 47.8073 277.586 48.0156C277.768 48.224 277.898 48.4714 277.977 48.7578C278.081 49.0443 278.146 49.3307 278.172 49.6172C278.198 49.9297 278.211 50.1771 278.211 50.3594C278.497 50.4896 278.797 50.5677 279.109 50.5938C279.448 50.6198 279.786 50.6328 280.125 50.6328C280.464 50.6328 280.841 50.6068 281.258 50.5547C281.674 50.5286 282.091 50.4635 282.508 50.3594C282.951 50.2812 283.367 50.1771 283.758 50.0469C284.174 49.9167 284.526 49.7474 284.812 49.5391C286.245 49.4089 287.508 49.0833 288.602 48.5625C289.695 48.0417 290.854 47.4297 292.078 46.7266C292.13 46.4401 292.234 46.2188 292.391 46.0625C292.573 45.8802 292.664 45.6198 292.664 45.2812C292.664 45.2292 292.651 45.1771 292.625 45.125C292.625 45.0469 292.625 44.9818 292.625 44.9297C292.104 44.2786 291.557 43.7057 290.984 43.2109C290.438 42.7161 289.721 42.3906 288.836 42.2344C288.732 42 288.562 41.8307 288.328 41.7266C288.094 41.5964 287.846 41.4792 287.586 41.375C287.326 41.2708 287.078 41.1667 286.844 41.0625C286.609 40.9323 286.44 40.724 286.336 40.4375C285.633 40.3073 284.904 40.151 284.148 39.9688C283.419 39.7604 282.794 39.3958 282.273 38.875C281.857 38.849 281.453 38.7708 281.062 38.6406C280.698 38.4844 280.333 38.3411 279.969 38.2109C279.604 38.0547 279.227 37.9245 278.836 37.8203C278.445 37.6901 278.042 37.625 277.625 37.625C277.521 37.4427 277.378 37.2995 277.195 37.1953C277.013 37.0911 276.805 37 276.57 36.9219C276.362 36.8438 276.154 36.7656 275.945 36.6875C275.763 36.5833 275.62 36.4401 275.516 36.2578C275.411 36.2839 275.333 36.3359 275.281 36.4141C275.229 36.4922 275.138 36.5312 275.008 36.5312H274.852C274.799 36.375 274.695 36.2708 274.539 36.2188C274.383 36.1406 274.292 35.9974 274.266 35.7891C273.797 35.763 273.367 35.6719 272.977 35.5156C272.612 35.3594 272.26 35.1901 271.922 35.0078C271.609 34.7995 271.284 34.6042 270.945 34.4219C270.607 34.2396 270.229 34.0964 269.812 33.9922C269.552 33.7839 269.305 33.5625 269.07 33.3281C268.862 33.0677 268.589 32.9375 268.25 32.9375C268.172 32.9375 268.029 32.9635 267.82 33.0156C267.768 32.5469 267.573 32.2214 267.234 32.0391C266.896 31.8307 266.531 31.6484 266.141 31.4922C265.88 30.8151 265.529 30.2161 265.086 29.6953C264.643 29.1745 264.161 28.6927 263.641 28.25C263.693 28.0938 263.719 27.9766 263.719 27.8984C263.719 27.638 263.654 27.4167 263.523 27.2344C263.393 27.026 263.25 26.8568 263.094 26.7266C262.729 25.5547 262.547 24.4089 262.547 23.2891C262.547 21.7266 262.898 20.2812 263.602 18.9531C264.279 17.599 265.359 16.5833 266.844 15.9062C266.87 15.6979 266.935 15.5156 267.039 15.3594C267.169 15.2031 267.247 15.0208 267.273 14.8125C267.508 14.8125 267.69 14.7604 267.82 14.6562C267.951 14.5521 268.068 14.4479 268.172 14.3438C268.302 14.2135 268.432 14.0964 268.562 13.9922C268.693 13.888 268.862 13.8229 269.07 13.7969C270.06 12.9375 271.115 12.2474 272.234 11.7266C273.354 11.1797 274.5 10.6198 275.672 10.0469C275.906 9.94271 276.102 9.7474 276.258 9.46094H276.492C276.753 9.46094 276.948 9.40885 277.078 9.30469C277.234 9.17448 277.456 9.13542 277.742 9.1875C277.846 9.03125 277.977 8.92708 278.133 8.875C278.315 8.82292 278.484 8.78385 278.641 8.75781C278.823 8.70573 278.992 8.64062 279.148 8.5625C279.305 8.48438 279.409 8.36719 279.461 8.21094H279.734C280.177 8.21094 280.607 8.14583 281.023 8.01562C281.44 7.85938 281.857 7.6901 282.273 7.50781H282.547C283.068 7.50781 283.549 7.41667 283.992 7.23438C284.461 7.02604 284.956 6.88281 285.477 6.80469C285.685 6.7526 285.893 6.73958 286.102 6.76562C286.31 6.79167 286.518 6.80469 286.727 6.80469C286.857 6.80469 287.013 6.79167 287.195 6.76562C287.378 6.73958 287.508 6.66146 287.586 6.53125H287.664C287.82 6.53125 287.911 6.58333 287.938 6.6875C287.964 6.79167 288.042 6.84375 288.172 6.84375C288.354 6.84375 288.536 6.81771 288.719 6.76562C288.901 6.71354 289.083 6.6875 289.266 6.6875C290.047 6.6875 290.815 6.76562 291.57 6.92188C292.352 7.07812 293.12 7.22135 293.875 7.35156C293.927 7.66406 294.057 7.88542 294.266 8.01562C294.5 8.14583 294.747 8.26302 295.008 8.36719V8.52344C295.008 8.73177 295.06 8.90104 295.164 9.03125C295.06 9.39583 294.878 9.66927 294.617 9.85156C294.357 10.0339 294.07 10.1901 293.758 10.3203C293.888 10.4245 293.966 10.5677 293.992 10.75C294.018 10.9323 294.031 11.1016 294.031 11.2578V11.7266L293.836 11.6875C293.419 11.6875 293.211 11.8828 293.211 12.2734C292.872 12.0651 292.495 11.9349 292.078 11.8828C291.688 11.8307 291.297 11.8047 290.906 11.8047C290.385 11.8047 289.839 11.8307 289.266 11.8828C288.693 11.9089 288.133 11.8958 287.586 11.8438C287.378 12.1042 287.117 12.2995 286.805 12.4297C286.492 12.5339 286.18 12.5859 285.867 12.5859C285.529 12.5859 285.203 12.5208 284.891 12.3906C284.578 12.2344 284.357 12.013 284.227 11.7266C284.096 11.6745 283.979 11.6484 283.875 11.6484H283.523C283.107 11.6484 282.69 11.7005 282.273 11.8047C281.883 11.8828 281.479 11.987 281.062 12.1172C280.646 12.2214 280.229 12.3385 279.812 12.4688C279.422 12.5729 279.018 12.638 278.602 12.6641C278.445 12.8724 278.237 13.0156 277.977 13.0938C277.716 13.1719 277.508 13.3151 277.352 13.5234C276.805 13.6276 276.31 13.8099 275.867 14.0703C275.424 14.3047 274.995 14.5651 274.578 14.8516L273.367 15.6719C272.977 15.9323 272.534 16.1536 272.039 16.3359C271.674 16.7266 271.336 17.0391 271.023 17.2734C270.711 17.5078 270.307 17.7161 269.812 17.8984C269.5 18.0026 269.318 18.1589 269.266 18.3672C269.24 18.5755 269.135 18.7839 268.953 18.9922C268.797 19.1745 268.602 19.3177 268.367 19.4219C268.159 19.5 267.977 19.6432 267.82 19.8516C267.69 20.0339 267.586 20.2552 267.508 20.5156C267.456 20.75 267.391 20.9844 267.312 21.2188C267.234 21.4531 267.143 21.6875 267.039 21.9219C266.935 22.1302 266.779 22.3125 266.57 22.4688C266.57 22.5729 266.557 22.6771 266.531 22.7812C266.531 22.8854 266.531 22.9766 266.531 23.0547C266.531 23.4193 266.57 23.7969 266.648 24.1875C266.753 24.5521 266.818 24.9167 266.844 25.2812C267.365 26.1927 267.977 27.026 268.68 27.7812C269.383 28.5104 270.138 29.1875 270.945 29.8125C271.753 30.4375 272.586 31.0234 273.445 31.5703C274.331 32.1172 275.203 32.651 276.062 33.1719C276.375 33.1458 276.661 33.1849 276.922 33.2891C277.182 33.3672 277.456 33.4193 277.742 33.4453C278.055 33.6797 278.419 33.862 278.836 33.9922L280.086 34.3828C280.503 34.513 280.906 34.6693 281.297 34.8516C281.688 35.0078 282.013 35.2292 282.273 35.5156C282.404 35.5417 282.521 35.5807 282.625 35.6328C282.729 35.6589 282.846 35.6719 282.977 35.6719C283.133 35.6719 283.224 35.6198 283.25 35.5156C284.422 35.9583 285.568 36.4531 286.688 37C287.807 37.5208 288.992 37.9245 290.242 38.2109C290.737 38.6276 291.284 38.9922 291.883 39.3047C292.482 39.6172 293.081 39.9427 293.68 40.2812C294.279 40.5938 294.852 40.9453 295.398 41.3359C295.945 41.7005 296.427 42.1432 296.844 42.6641C296.896 43.1589 297 43.6406 297.156 44.1094C297.339 44.5521 297.43 45.0339 297.43 45.5547ZM328.836 39.9688C328.836 40.2292 328.758 40.4505 328.602 40.6328C328.471 40.7891 328.302 40.9323 328.094 41.0625C327.911 41.1927 327.716 41.3099 327.508 41.4141C327.326 41.5182 327.156 41.6484 327 41.8047C326.896 41.9089 326.818 42.0391 326.766 42.1953C326.74 42.3255 326.674 42.4167 326.57 42.4688C326.414 42.599 326.245 42.6771 326.062 42.7031C325.88 42.7292 325.685 42.7682 325.477 42.8203C325.294 42.8464 325.112 42.8984 324.93 42.9766C324.747 43.0286 324.591 43.1458 324.461 43.3281C323.237 43.4583 322.026 43.6276 320.828 43.8359C319.656 44.0443 318.445 44.1484 317.195 44.1484C316.961 44.1484 316.701 44.1745 316.414 44.2266C316.154 44.2526 315.906 44.2786 315.672 44.3047C315.125 44.3568 314.578 44.3958 314.031 44.4219C313.51 44.4479 312.977 44.4609 312.43 44.4609C311.674 44.4609 310.919 44.4349 310.164 44.3828C309.409 44.3047 308.667 44.1875 307.938 44.0312C307.755 43.901 307.547 43.7969 307.312 43.7188C307.078 43.6406 306.831 43.5625 306.57 43.4844C306.336 43.4062 306.115 43.3151 305.906 43.2109C305.698 43.1068 305.542 42.9505 305.438 42.7422C305.047 42.7161 304.695 42.638 304.383 42.5078C304.096 42.3776 303.823 42.2344 303.562 42.0781C303.328 41.8958 303.081 41.7135 302.82 41.5312C302.56 41.349 302.26 41.1927 301.922 41.0625C301.661 40.6979 301.388 40.3464 301.102 40.0078C300.841 39.6432 300.516 39.3438 300.125 39.1094C300.047 38.6146 299.917 38.1198 299.734 37.625C299.578 37.1302 299.409 36.6484 299.227 36.1797C299.07 35.6849 298.94 35.1901 298.836 34.6953C298.706 34.2005 298.641 33.6927 298.641 33.1719C298.641 32.8073 298.693 32.3646 298.797 31.8438C298.901 31.3229 299.031 30.8021 299.188 30.2812C299.37 29.7344 299.578 29.2266 299.812 28.7578C300.047 28.2891 300.281 27.9115 300.516 27.625C300.594 27.5469 300.685 27.4818 300.789 27.4297C300.893 27.3776 300.984 27.2995 301.062 27.1953C301.297 26.9349 301.544 26.7266 301.805 26.5703C302.065 26.388 302.339 26.1797 302.625 25.9453C302.729 25.8411 302.807 25.724 302.859 25.5938C302.938 25.4635 303.042 25.3464 303.172 25.2422C303.25 25.1901 303.354 25.1771 303.484 25.2031C303.641 25.2292 303.771 25.2031 303.875 25.125C303.979 25.0469 304.031 24.9557 304.031 24.8516C304.031 24.7474 304.07 24.6562 304.148 24.5781C304.174 24.5521 304.253 24.5521 304.383 24.5781C304.513 24.5781 304.591 24.5781 304.617 24.5781C304.799 24.5781 305.008 24.4609 305.242 24.2266C305.477 23.9661 305.672 23.7969 305.828 23.7188C306.01 23.6146 306.193 23.5495 306.375 23.5234C306.557 23.4714 306.753 23.3932 306.961 23.2891C307.247 23.1328 307.521 23.0156 307.781 22.9375C308.068 22.8333 308.354 22.7161 308.641 22.5859C308.797 22.5339 308.94 22.4427 309.07 22.3125C309.201 22.1823 309.331 22.0911 309.461 22.0391C309.695 21.9609 309.943 21.9089 310.203 21.8828C310.49 21.8307 310.75 21.7917 310.984 21.7656C311.245 21.7135 311.492 21.6615 311.727 21.6094C311.987 21.5312 312.221 21.401 312.43 21.2188H312.742C313.211 21.2188 313.667 21.1536 314.109 21.0234C314.552 20.8932 315.008 20.8281 315.477 20.8281C315.607 20.8281 315.802 20.8542 316.062 20.9062C316.271 20.776 316.505 20.7109 316.766 20.7109C317.208 20.7109 317.651 20.8281 318.094 21.0625C318.536 21.2708 318.992 21.375 319.461 21.375H319.695C319.799 21.375 319.904 21.362 320.008 21.3359C320.294 21.6224 320.633 21.7786 321.023 21.8047C321.44 21.8307 321.792 21.9479 322.078 22.1562C322.26 22.3125 322.404 22.4948 322.508 22.7031C322.638 22.9115 322.742 23.1328 322.82 23.3672L323.055 24.0703C323.133 24.3047 323.237 24.513 323.367 24.6953C323.237 25.6328 322.846 26.388 322.195 26.9609C321.57 27.5078 320.776 27.7812 319.812 27.7812C319.448 27.7812 319.135 27.7422 318.875 27.6641C318.641 27.5599 318.419 27.4557 318.211 27.3516C318.029 27.2474 317.833 27.1432 317.625 27.0391C317.417 26.9349 317.182 26.8568 316.922 26.8047C317.208 26.2839 317.391 25.724 317.469 25.125C317.182 24.9948 316.896 24.9036 316.609 24.8516C316.323 24.7995 316.049 24.7083 315.789 24.5781C315.086 24.7604 314.396 24.8906 313.719 24.9688C313.068 25.0208 312.456 25.2943 311.883 25.7891C311.753 25.763 311.609 25.737 311.453 25.7109C311.323 25.6849 311.193 25.6719 311.062 25.6719C310.906 25.6719 310.594 25.7891 310.125 26.0234C309.656 26.2318 309.148 26.4792 308.602 26.7656C308.081 27.0521 307.573 27.3385 307.078 27.625C306.609 27.9115 306.284 28.1068 306.102 28.2109C305.893 28.3411 305.711 28.4974 305.555 28.6797C305.398 28.862 305.242 29.0573 305.086 29.2656C304.93 29.4479 304.773 29.6302 304.617 29.8125C304.461 29.9688 304.266 30.0859 304.031 30.1641C303.979 30.4505 303.888 30.6979 303.758 30.9062C303.628 31.1146 303.484 31.3359 303.328 31.5703C303.302 32.0391 303.25 32.5078 303.172 32.9766C303.12 33.4453 303.094 33.9141 303.094 34.3828V34.8906C303.094 35.0469 303.12 35.1901 303.172 35.3203C303.432 35.6589 303.641 36.0365 303.797 36.4531C303.979 36.8698 304.279 37.1562 304.695 37.3125C304.721 37.4167 304.708 37.4818 304.656 37.5078C304.63 37.5339 304.604 37.599 304.578 37.7031C304.734 37.9896 304.93 38.224 305.164 38.4062C305.424 38.5625 305.685 38.7318 305.945 38.9141C306.206 39.0703 306.453 39.2396 306.688 39.4219C306.922 39.6042 307.104 39.8385 307.234 40.125C307.625 40.125 307.99 40.1901 308.328 40.3203C308.693 40.4505 309.031 40.5938 309.344 40.75C309.682 40.9062 309.995 41.0495 310.281 41.1797C310.594 41.3099 310.906 41.375 311.219 41.375C311.505 41.375 311.766 41.3359 312 41.2578C312.677 41.4661 313.354 41.6224 314.031 41.7266C314.734 41.8047 315.438 41.8438 316.141 41.8438C317 41.8438 317.859 41.7917 318.719 41.6875C319.578 41.5833 320.438 41.4922 321.297 41.4141C321.609 41.362 321.909 41.3359 322.195 41.3359C322.482 41.3359 322.768 41.3099 323.055 41.2578C323.419 41.2057 323.758 41.0365 324.07 40.75C324.409 40.4635 324.734 40.2552 325.047 40.125C325.333 40.3073 325.672 40.3984 326.062 40.3984C326.505 40.3984 326.935 40.3333 327.352 40.2031C327.768 40.0469 328.198 39.9688 328.641 39.9688H328.836ZM378.484 40.2031C378.432 40.5938 378.289 40.8932 378.055 41.1016C377.846 41.3099 377.599 41.5052 377.312 41.6875C377.182 41.6615 377.052 41.6484 376.922 41.6484C376.818 41.6224 376.701 41.6094 376.57 41.6094C375.763 41.5833 374.995 41.6875 374.266 41.9219C373.562 42.1562 372.833 42.3255 372.078 42.4297C371.818 42.4818 371.57 42.5078 371.336 42.5078C371.128 42.4818 370.906 42.4948 370.672 42.5469C369.839 42.6771 368.953 42.7812 368.016 42.8594C367.078 42.9375 366.141 43.0417 365.203 43.1719C364.266 43.276 363.341 43.4193 362.43 43.6016C361.544 43.7578 360.711 43.9922 359.93 44.3047C359.852 44.2526 359.773 44.2005 359.695 44.1484C359.617 44.0703 359.526 44.0312 359.422 44.0312C359.161 44.0312 358.914 44.0703 358.68 44.1484C358.445 44.2266 358.211 44.2526 357.977 44.2266C357.716 44.3828 357.43 44.5 357.117 44.5781C356.831 44.6302 356.531 44.6823 356.219 44.7344C355.932 44.7604 355.646 44.8125 355.359 44.8906C355.073 44.9688 354.799 45.112 354.539 45.3203C354.331 45.2161 354.07 45.1641 353.758 45.1641C353.471 45.138 353.276 45.0339 353.172 44.8516C352.573 45.138 351.935 45.3203 351.258 45.3984C350.607 45.4766 349.943 45.5026 349.266 45.4766C348.823 45.4505 348.315 45.3854 347.742 45.2812C347.169 45.1771 346.596 45.0339 346.023 44.8516C345.451 44.6432 344.917 44.4089 344.422 44.1484C343.927 43.862 343.549 43.5234 343.289 43.1328C343.107 42.8724 342.977 42.5859 342.898 42.2734C342.82 41.9609 342.638 41.7266 342.352 41.5703C342.43 40.9714 342.521 40.3854 342.625 39.8125C342.729 39.2396 342.833 38.6536 342.938 38.0547C343.458 37.612 343.953 37.1432 344.422 36.6484C344.891 36.1536 345.333 35.6328 345.75 35.0859C346.245 34.8516 346.701 34.5651 347.117 34.2266C347.56 33.888 347.99 33.5495 348.406 33.2109C348.849 32.8464 349.279 32.4948 349.695 32.1562C350.138 31.8177 350.607 31.5182 351.102 31.2578C351.18 31.0755 351.284 30.9323 351.414 30.8281C351.57 30.6979 351.727 30.5807 351.883 30.4766C352.039 30.3464 352.182 30.2161 352.312 30.0859C352.443 29.9297 352.534 29.7474 352.586 29.5391C353.497 28.9922 354.292 28.3021 354.969 27.4688C355.646 26.6354 356.089 25.6979 356.297 24.6562C355.854 24.2917 355.346 24.0573 354.773 23.9531C354.227 23.8229 353.654 23.7318 353.055 23.6797C352.534 23.6536 351.987 23.6536 351.414 23.6797C350.867 23.7057 350.307 23.6927 349.734 23.6406C349.161 23.8229 348.562 23.9401 347.938 23.9922C347.339 24.0443 346.74 24.0964 346.141 24.1484C345.542 24.1745 344.943 24.2526 344.344 24.3828C343.771 24.487 343.211 24.6953 342.664 25.0078C342.56 25.0078 342.456 24.9948 342.352 24.9688C342.273 24.9427 342.182 24.9297 342.078 24.9297C341.245 24.9036 340.464 25.0729 339.734 25.4375C339.005 25.776 338.289 26.1146 337.586 26.4531C337.534 26.5573 337.508 26.6354 337.508 26.6875C337.508 26.8438 337.534 27 337.586 27.1562C337.664 27.2865 337.703 27.4297 337.703 27.5859C337.677 27.612 337.664 27.638 337.664 27.6641C337.664 27.6901 337.651 27.7161 337.625 27.7422C337.599 27.8724 337.56 27.9896 337.508 28.0938C337.482 28.1979 337.443 28.3151 337.391 28.4453C337.104 29.2786 336.948 30.099 336.922 30.9062C336.896 31.5833 336.896 32.2474 336.922 32.8984C336.948 33.5495 336.948 34.2135 336.922 34.8906C336.87 35.724 336.74 36.5052 336.531 37.2344C336.661 37.8594 336.779 38.5234 336.883 39.2266C336.987 39.9036 337.117 40.5807 337.273 41.2578C337.43 41.9349 337.612 42.599 337.82 43.25C338.055 43.875 338.354 44.474 338.719 45.0469C338.693 45.099 338.706 45.138 338.758 45.1641C338.81 45.1901 338.862 45.2031 338.914 45.2031H339.227C339.357 45.2031 339.409 45.2552 339.383 45.3594C339.435 45.4375 339.474 45.5156 339.5 45.5938C339.526 45.6458 339.578 45.6979 339.656 45.75C339.708 45.8281 339.708 45.9323 339.656 46.0625C339.63 46.5833 339.5 47.0651 339.266 47.5078C339.031 47.9505 338.888 48.4323 338.836 48.9531C338.523 49.0312 338.237 49.0703 337.977 49.0703C337.534 49.0443 337.143 48.9141 336.805 48.6797C336.466 48.4714 336.154 48.2109 335.867 47.8984C335.581 47.5859 335.307 47.2734 335.047 46.9609C334.786 46.6224 334.5 46.3359 334.188 46.1016C334.005 45.3724 333.823 44.5651 333.641 43.6797C333.484 42.7943 333.211 42.0391 332.82 41.4141C332.924 41.1797 332.977 40.8932 332.977 40.5547C333.003 40.0339 332.951 39.526 332.82 39.0312C332.716 38.5104 332.69 37.9896 332.742 37.4688C332.742 37.1823 332.768 36.8958 332.82 36.6094C332.898 36.3229 332.951 36.0365 332.977 35.75C333.003 35.3073 332.951 34.8776 332.82 34.4609C332.716 34.0443 332.677 33.6146 332.703 33.1719C332.729 32.9635 332.768 32.7682 332.82 32.5859C332.898 32.3776 333.003 32.1953 333.133 32.0391C333.003 31.7266 332.964 31.4271 333.016 31.1406C333.042 30.6979 333.094 30.2812 333.172 29.8906C333.25 29.5 333.302 29.1094 333.328 28.7188C333.328 28.5104 333.315 28.3151 333.289 28.1328C333.263 27.9245 333.224 27.7292 333.172 27.5469L332.82 27.4297C332.664 27.4297 332.508 27.4688 332.352 27.5469C332.221 27.625 332.104 27.7161 332 27.8203C331.896 27.9245 331.805 28.0156 331.727 28.0938C331.648 28.1458 331.57 28.1719 331.492 28.1719C331.44 28.1719 331.375 28.1719 331.297 28.1719C331.245 28.1458 331.193 28.1328 331.141 28.1328C331.089 28.1328 330.984 28.1849 330.828 28.2891C330.698 28.3932 330.529 28.5104 330.32 28.6406C330.138 28.7448 329.956 28.862 329.773 28.9922C329.591 29.0964 329.448 29.1615 329.344 29.1875C329.057 29.1354 328.823 29.0443 328.641 28.9141C328.484 28.7578 328.328 28.6146 328.172 28.4844C328.042 28.3281 327.898 28.1979 327.742 28.0938C327.586 27.9635 327.391 27.9115 327.156 27.9375C327.078 27.7812 327.039 27.612 327.039 27.4297C327.013 27.2474 327.013 27.0651 327.039 26.8828V26.2578C327.221 25.9193 327.469 25.6458 327.781 25.4375C328.068 25.2031 328.38 25.0078 328.719 24.8516L329.734 24.3828C330.073 24.2266 330.385 24.0312 330.672 23.7969H331.023C331.492 23.8229 331.896 23.7318 332.234 23.5234C332.599 23.3151 332.938 23.0807 333.25 22.8203C333.562 22.5339 333.875 22.2474 334.188 21.9609C334.526 21.6745 334.891 21.4531 335.281 21.2969C335.568 21.4271 335.867 21.5443 336.18 21.6484C336.492 21.7266 336.818 21.7786 337.156 21.8047C337.495 21.8047 337.846 21.7526 338.211 21.6484C338.576 21.5443 338.862 21.349 339.07 21.0625C339.201 21.1146 339.305 21.1536 339.383 21.1797C339.487 21.1797 339.604 21.1797 339.734 21.1797C340.125 21.2057 340.516 21.1536 340.906 21.0234C341.297 20.8672 341.674 20.6849 342.039 20.4766C342.56 20.5026 343.068 20.4766 343.562 20.3984C344.083 20.2943 344.591 20.1901 345.086 20.0859C345.607 19.9818 346.115 19.8906 346.609 19.8125C347.13 19.7083 347.651 19.6693 348.172 19.6953C349.031 19.7214 349.878 19.6432 350.711 19.4609C351.544 19.2786 352.391 19.2135 353.25 19.2656C353.849 19.2917 354.435 19.3438 355.008 19.4219C355.607 19.474 356.206 19.487 356.805 19.4609C357.143 19.6172 357.443 19.7604 357.703 19.8906C357.99 19.9948 358.341 20.0208 358.758 19.9688C359.591 20.6719 360.346 21.4922 361.023 22.4297V23.0938C360.997 23.6927 360.893 24.2786 360.711 24.8516C360.529 25.4245 360.307 25.9974 360.047 26.5703C359.812 27.1172 359.552 27.6641 359.266 28.2109C358.979 28.7318 358.706 29.2526 358.445 29.7734C356.753 31.3099 355.06 32.8333 353.367 34.3438C351.674 35.8542 349.93 37.3125 348.133 38.7188C348.081 38.9792 348.003 39.2135 347.898 39.4219C347.82 39.6302 347.768 39.8516 347.742 40.0859C347.742 40.2161 347.755 40.3203 347.781 40.3984C347.964 40.4505 348.12 40.5547 348.25 40.7109C348.406 40.8411 348.458 41.0234 348.406 41.2578H348.758C348.888 41.2578 348.953 41.3099 348.953 41.4141L349.578 41.4531C350.568 41.5052 351.557 41.4792 352.547 41.375C353.536 41.2708 354.526 41.1536 355.516 41.0234C356.531 40.8932 357.534 40.776 358.523 40.6719C359.513 40.5417 360.503 40.4635 361.492 40.4375C361.727 40.3594 361.974 40.2943 362.234 40.2422C362.495 40.1901 362.729 40.0859 362.938 39.9297H363.055C363.237 39.9297 363.367 39.9818 363.445 40.0859C363.549 40.1901 363.693 40.2552 363.875 40.2812C364.005 40.2812 364.135 40.2552 364.266 40.2031C364.422 40.151 364.578 40.112 364.734 40.0859C365.099 39.9818 365.477 39.9167 365.867 39.8906C366.284 39.8646 366.688 39.8255 367.078 39.7734C368.589 39.6432 370.086 39.5651 371.57 39.5391C373.055 39.487 374.539 39.2917 376.023 38.9531C376.154 39.1354 376.336 39.2656 376.57 39.3438C376.805 39.3958 377.052 39.4609 377.312 39.5391C377.573 39.5911 377.807 39.6562 378.016 39.7344C378.25 39.8125 378.406 39.9688 378.484 40.2031ZM375.828 41.6484C375.698 41.8568 375.542 42.0521 375.359 42.2344C375.177 42.3906 375.008 42.5599 374.852 42.7422C374.669 42.8203 374.461 42.8594 374.227 42.8594C374.018 42.8594 373.81 42.8594 373.602 42.8594C373.419 42.8333 373.237 42.8333 373.055 42.8594C372.898 42.8594 372.768 42.9115 372.664 43.0156C372.456 42.9635 372.299 42.8724 372.195 42.7422C372.091 42.5859 371.909 42.4948 371.648 42.4688C371.544 42.4427 371.44 42.4427 371.336 42.4688C370.945 42.026 370.581 41.5573 370.242 41.0625C369.93 40.5677 369.63 40.099 369.344 39.6562C369.318 38.6927 369.24 37.7161 369.109 36.7266C369.083 36.4922 369.044 36.2578 368.992 36.0234C368.94 35.7891 368.901 35.5677 368.875 35.3594C368.875 35.099 368.888 34.8516 368.914 34.6172C368.966 34.3568 369.005 34.1224 369.031 33.9141C369.135 33.1589 369.253 32.4167 369.383 31.6875C369.513 30.9583 369.63 30.2161 369.734 29.4609C369.839 28.7839 369.891 28.0807 369.891 27.3516C369.891 26.5964 369.773 25.8932 369.539 25.2422L369.5 25.0469C369.552 24.8385 369.604 24.6693 369.656 24.5391C369.734 24.3828 369.786 24.2135 369.812 24.0312C369.865 23.7448 369.799 23.5365 369.617 23.4062C369.695 23.1979 369.826 23.0677 370.008 23.0156C370.19 22.9375 370.294 22.7812 370.32 22.5469C370.346 22.4427 370.346 22.3385 370.32 22.2344C370.529 22.1562 370.737 22.0911 370.945 22.0391C371.18 21.9609 371.401 21.9479 371.609 22C371.948 22.0521 372.247 22.1693 372.508 22.3516C372.768 22.5078 373.016 22.6901 373.25 22.8984C373.667 24.1484 373.836 25.4766 373.758 26.8828C373.68 28.263 373.549 29.6562 373.367 31.0625C373.185 32.4688 373.068 33.849 373.016 35.2031C372.964 36.5312 373.172 37.7682 373.641 38.9141L373.719 38.9531C373.849 38.9792 373.953 38.9401 374.031 38.8359C374.109 38.7057 374.214 38.6536 374.344 38.6797C374.448 38.7318 374.513 38.7578 374.539 38.7578C374.643 39.2786 374.812 39.7734 375.047 40.2422C375.281 40.7109 375.542 41.1797 375.828 41.6484ZM410.047 25.2812C410.047 25.6458 410.034 26.0104 410.008 26.375C409.982 26.7396 409.943 27.1042 409.891 27.4688C409.708 27.7292 409.526 27.9635 409.344 28.1719C409.188 28.3542 409.083 28.5885 409.031 28.875C408.745 29.0833 408.419 29.3698 408.055 29.7344C407.716 30.099 407.573 30.4635 407.625 30.8281H407.078C406.766 31.2969 406.401 31.7005 405.984 32.0391C405.568 32.3776 405.125 32.7031 404.656 33.0156L403.289 33.9141C402.846 34.2005 402.43 34.5391 402.039 34.9297C401.831 34.9557 401.661 34.9948 401.531 35.0469C401.401 35.099 401.232 35.112 401.023 35.0859C400.216 35.6068 399.37 36.0625 398.484 36.4531C397.625 36.8438 396.753 37.2344 395.867 37.625C395.008 37.9896 394.148 38.3802 393.289 38.7969C392.43 39.2135 391.609 39.6953 390.828 40.2422C390.75 40.2161 390.646 40.2031 390.516 40.2031C390.281 40.2031 390.047 40.2422 389.812 40.3203C389.578 40.3724 389.344 40.3984 389.109 40.3984C389.005 40.3984 388.862 40.3854 388.68 40.3594C388.523 40.3333 388.406 40.2943 388.328 40.2422C388.198 40.1641 388.081 40.0469 387.977 39.8906C387.872 39.7344 387.794 39.5651 387.742 39.3828C387.69 39.1745 387.651 38.9792 387.625 38.7969C387.599 38.6146 387.586 38.4583 387.586 38.3281C387.586 38.1719 387.599 38.0026 387.625 37.8203C387.651 37.638 387.69 37.4688 387.742 37.3125C388.497 37.2604 389.253 37.0651 390.008 36.7266C390.789 36.388 391.531 36.0625 392.234 35.75C392.417 35.6719 392.56 35.5807 392.664 35.4766C392.794 35.3464 392.924 35.2422 393.055 35.1641C393.185 35.0599 393.328 34.9688 393.484 34.8906C393.641 34.8125 393.836 34.7734 394.07 34.7734H394.188C395.828 34.0182 397.43 33.1979 398.992 32.3125C400.581 31.4271 402.156 30.5286 403.719 29.6172C403.797 29.3828 403.914 29.1484 404.07 28.9141C404.253 28.6797 404.422 28.4583 404.578 28.25C404.734 28.0156 404.878 27.7812 405.008 27.5469C405.138 27.3125 405.203 27.0781 405.203 26.8438C405.203 26.375 404.982 25.9844 404.539 25.6719H404.383C404.07 25.6719 403.797 25.6328 403.562 25.5547C403.328 25.4505 403.107 25.3594 402.898 25.2812C402.69 25.1771 402.456 25.099 402.195 25.0469C401.935 24.9688 401.635 24.9427 401.297 24.9688C401.167 24.8646 400.958 24.7734 400.672 24.6953C400.385 24.6172 400.151 24.5781 399.969 24.5781C399.031 24.5781 398.107 24.6432 397.195 24.7734C396.284 24.8776 395.372 24.9427 394.461 24.9688C394.227 25.099 394.005 25.2161 393.797 25.3203C393.589 25.4245 393.341 25.4766 393.055 25.4766C392.924 25.4766 392.807 25.4766 392.703 25.4766C392.599 25.4505 392.482 25.4245 392.352 25.3984C391.857 25.6068 391.297 25.7891 390.672 25.9453C390.047 26.0755 389.422 26.2448 388.797 26.4531C388.198 26.6354 387.638 26.8698 387.117 27.1562C386.596 27.4427 386.193 27.8333 385.906 28.3281C385.906 28.4583 385.932 28.5755 385.984 28.6797C386.036 28.7578 386.062 28.862 386.062 28.9922V29.1484C385.906 29.3047 385.802 29.487 385.75 29.6953C385.698 29.8776 385.659 30.0729 385.633 30.2812C385.607 30.4635 385.568 30.6589 385.516 30.8672C385.49 31.0495 385.398 31.2318 385.242 31.4141C385.346 31.8047 385.398 32.2344 385.398 32.7031C385.398 33.224 385.359 33.7448 385.281 34.2656C385.229 34.7865 385.203 35.3073 385.203 35.8281C385.203 36.3229 385.255 36.7656 385.359 37.1562C385.203 37.3125 385.138 37.5469 385.164 37.8594C385.19 38.1719 385.125 38.4062 384.969 38.5625C384.969 38.7708 385.021 38.9141 385.125 38.9922C385.255 39.0703 385.333 39.2005 385.359 39.3828C385.255 39.8255 385.203 40.3073 385.203 40.8281C385.203 41.5833 385.281 42.3516 385.438 43.1328C385.62 43.9141 385.828 44.6823 386.062 45.4375C386.479 45.3073 386.922 45.2031 387.391 45.125C387.885 45.0208 388.354 44.9688 388.797 44.9688C388.875 44.9688 388.953 44.9818 389.031 45.0078C389.109 45.0078 389.188 45.0078 389.266 45.0078C389.318 45.2943 389.422 45.5547 389.578 45.7891C389.734 46.0234 389.878 46.2839 390.008 46.5703C389.878 46.7526 389.76 46.8958 389.656 47C389.578 47.1302 389.539 47.2995 389.539 47.5078C389.174 47.5339 388.875 47.625 388.641 47.7812C388.406 47.9635 388.146 48.1589 387.859 48.3672H387.703C387.26 48.3672 386.896 48.4453 386.609 48.6016C386.323 48.7839 385.997 48.9792 385.633 49.1875C385.32 49.0573 385.008 48.9922 384.695 48.9922C384.357 48.9922 384.018 49.0573 383.68 49.1875C383.263 49.0052 382.924 48.7188 382.664 48.3281C382.404 47.9635 382.182 47.5469 382 47.0781C381.818 46.6354 381.648 46.1797 381.492 45.7109C381.362 45.2422 381.206 44.8125 381.023 44.4219V43.7969C381.023 43.1979 380.971 42.625 380.867 42.0781C380.789 41.5052 380.75 40.9193 380.75 40.3203C380.75 40.0859 380.763 39.8385 380.789 39.5781C380.841 39.3177 380.919 39.0703 381.023 38.8359C380.971 38.6016 380.945 38.3802 380.945 38.1719V37.4297C380.945 36.6484 380.971 35.8672 381.023 35.0859C381.102 34.3047 381.141 33.5234 381.141 32.7422C381.141 32.1693 381.102 31.5833 381.023 30.9844C380.893 31.0365 380.776 31.0885 380.672 31.1406C380.568 31.1927 380.451 31.2188 380.32 31.2188C380.19 31.2188 380.06 31.2057 379.93 31.1797C379.826 31.1536 379.721 31.1276 379.617 31.1016C379.357 30.8672 379.174 30.5807 379.07 30.2422C378.966 29.9036 378.823 29.5911 378.641 29.3047C378.641 28.8099 378.719 28.4062 378.875 28.0938C379.005 27.7552 379.174 27.4557 379.383 27.1953C379.591 26.9089 379.799 26.6354 380.008 26.375C380.242 26.1146 380.438 25.7891 380.594 25.3984H380.75C381.167 25.3984 381.583 25.2682 382 25.0078C382.417 24.7214 382.885 24.5781 383.406 24.5781C383.589 24.3438 383.836 24.1484 384.148 23.9922C384.461 23.8099 384.786 23.6667 385.125 23.5625C385.49 23.4583 385.841 23.3932 386.18 23.3672C386.544 23.3151 386.883 23.2891 387.195 23.2891C387.299 23.1068 387.456 22.9896 387.664 22.9375C387.872 22.8594 388.081 22.7943 388.289 22.7422C388.523 22.6641 388.732 22.599 388.914 22.5469C389.122 22.4688 389.292 22.3385 389.422 22.1562C389.63 22.2083 389.826 22.2344 390.008 22.2344C390.346 22.2344 390.672 22.1953 390.984 22.1172C391.297 22.013 391.609 21.9089 391.922 21.8047C392.234 21.6745 392.547 21.5573 392.859 21.4531C393.198 21.349 393.549 21.2969 393.914 21.2969C394.044 21.2969 394.174 21.3099 394.305 21.3359C394.435 21.3359 394.565 21.3359 394.695 21.3359C394.904 21.3359 395.021 21.2578 395.047 21.1016C395.099 20.9453 395.19 20.8281 395.32 20.75C395.398 20.776 395.542 20.7891 395.75 20.7891C396.271 20.7891 396.779 20.75 397.273 20.6719C397.768 20.5677 398.276 20.5156 398.797 20.5156C399.031 20.5156 399.266 20.5286 399.5 20.5547C399.734 20.5807 399.969 20.6458 400.203 20.75C400.255 20.6719 400.307 20.6068 400.359 20.5547C400.411 20.5026 400.451 20.4375 400.477 20.3594C401.753 20.4375 402.951 20.6979 404.07 21.1406C405.216 21.5833 406.401 21.974 407.625 22.3125C407.781 22.5469 407.964 22.7552 408.172 22.9375L408.836 23.4844C409.07 23.6667 409.292 23.849 409.5 24.0312C409.708 24.2135 409.891 24.4349 410.047 24.6953V25.2812ZM444.969 21.8828C444.865 22.2214 444.695 22.5339 444.461 22.8203L443.797 23.6406C443.589 23.901 443.406 24.1875 443.25 24.5C443.12 24.7865 443.081 25.125 443.133 25.5156C443.081 25.5156 443.016 25.5156 442.938 25.5156C442.859 25.4896 442.794 25.4766 442.742 25.4766C442.326 25.4766 442 25.5807 441.766 25.7891C441.557 25.9714 441.271 26.1276 440.906 26.2578C440.854 26.1016 440.789 25.9583 440.711 25.8281C440.633 25.6719 440.516 25.5677 440.359 25.5156C439.734 25.6458 439.109 25.75 438.484 25.8281C437.859 25.8802 437.234 25.9583 436.609 26.0625C436.323 26.1146 436.036 26.1927 435.75 26.2969C435.464 26.375 435.164 26.4531 434.852 26.5312C434.695 26.5833 434.526 26.6094 434.344 26.6094C434.161 26.5833 433.979 26.5833 433.797 26.6094C433.172 26.6354 432.495 26.6875 431.766 26.7656C431.036 26.8177 430.385 27.013 429.812 27.3516C429.552 27.2995 429.279 27.2604 428.992 27.2344C428.706 27.2083 428.419 27.1953 428.133 27.1953C427.508 27.1953 426.818 27.2604 426.062 27.3906C425.333 27.4948 424.682 27.7161 424.109 28.0547C423.979 28.0026 423.836 27.9635 423.68 27.9375C423.549 27.9115 423.393 27.8984 423.211 27.8984C423.159 27.8984 423.12 27.9115 423.094 27.9375C423.068 27.9375 423.029 27.9375 422.977 27.9375C422.951 28.1719 422.977 28.4062 423.055 28.6406C423.159 28.849 423.328 29.0182 423.562 29.1484C423.458 29.4349 423.406 29.7474 423.406 30.0859C423.406 30.5286 423.432 30.9714 423.484 31.4141C423.562 31.8568 423.602 32.2995 423.602 32.7422C423.602 33.237 423.536 33.6276 423.406 33.9141C423.667 34.6953 423.797 35.5286 423.797 36.4141C423.797 36.7266 423.771 37.0391 423.719 37.3516C423.693 37.638 423.68 37.9505 423.68 38.2891C423.68 38.5755 423.784 38.8099 423.992 38.9922C424.201 39.1484 424.305 39.3698 424.305 39.6562C424.305 39.7604 424.279 39.8646 424.227 39.9688C424.591 39.8906 424.943 39.7865 425.281 39.6562C425.62 39.5 425.971 39.4219 426.336 39.4219C426.544 39.4219 426.74 39.4609 426.922 39.5391C427.13 39.6172 427.312 39.7214 427.469 39.8516C427.443 39.9818 427.417 40.125 427.391 40.2812C427.391 40.4375 427.391 40.5938 427.391 40.75C427.391 41.0365 427.391 41.3099 427.391 41.5703C427.417 41.8047 427.443 42.0651 427.469 42.3516C427.26 42.7161 427.013 43.0417 426.727 43.3281C426.466 43.6146 426.284 43.9792 426.18 44.4219C425.789 44.4219 425.438 44.513 425.125 44.6953C424.839 44.8516 424.565 45.0339 424.305 45.2422C424.044 45.4245 423.784 45.6068 423.523 45.7891C423.263 45.9453 422.977 46.0234 422.664 46.0234C422.273 46.0234 422 45.9714 421.844 45.8672C421.688 45.737 421.57 45.6068 421.492 45.4766C421.414 45.3464 421.336 45.2292 421.258 45.125C421.206 45.0208 421.076 44.9818 420.867 45.0078C420.815 44.6693 420.711 44.3568 420.555 44.0703C420.398 43.7578 420.229 43.4583 420.047 43.1719C419.891 42.8854 419.721 42.599 419.539 42.3125C419.383 42 419.266 41.6875 419.188 41.375C419.031 40.6979 418.966 39.9948 418.992 39.2656C419.018 38.5365 418.901 37.8333 418.641 37.1562C418.693 36.7917 418.732 36.4271 418.758 36.0625C418.784 35.6719 418.797 35.2943 418.797 34.9297C418.797 34.2005 418.771 33.4844 418.719 32.7812C418.693 32.0521 418.667 31.3099 418.641 30.5547C418.458 30.3203 418.341 30.0599 418.289 29.7734C418.263 29.4609 418.237 29.1615 418.211 28.875C418.133 28.7969 418.042 28.7188 417.938 28.6406C417.859 28.5625 417.807 28.4583 417.781 28.3281C417.573 28.276 417.417 28.25 417.312 28.25C416.948 28.25 416.635 28.3411 416.375 28.5234C416.141 28.6797 415.919 28.7578 415.711 28.7578C415.503 28.7578 415.307 28.7318 415.125 28.6797C414.943 28.6276 414.76 28.6016 414.578 28.6016C414.422 28.6016 414.331 28.6406 414.305 28.7188C414.305 28.7708 414.253 28.8229 414.148 28.875C414.07 28.9271 413.888 28.9792 413.602 29.0312C413.315 29.0833 412.99 29.1354 412.625 29.1875C412.286 29.2135 411.948 29.2396 411.609 29.2656C411.297 29.2917 411.089 29.3047 410.984 29.3047C410.568 29.3047 410.255 29.2266 410.047 29.0703C409.812 28.888 409.539 28.6927 409.227 28.4844C409.279 28.3281 409.305 28.224 409.305 28.1719C409.305 27.9115 409.227 27.7031 409.07 27.5469C408.914 27.3646 408.836 27.2083 408.836 27.0781C408.836 26.7917 408.953 26.5703 409.188 26.4141C409.396 26.2578 409.513 26.0104 409.539 25.6719C410.138 25.4115 410.75 25.2161 411.375 25.0859C412 24.9557 412.638 24.8516 413.289 24.7734C413.94 24.6953 414.578 24.6042 415.203 24.5C415.854 24.3958 416.492 24.2266 417.117 23.9922C417.299 24.0182 417.469 24.0443 417.625 24.0703C417.807 24.0703 417.99 24.0703 418.172 24.0703C418.953 24.0703 419.721 23.9922 420.477 23.8359C421.258 23.6536 422.052 23.5625 422.859 23.5625C423.068 23.5625 423.276 23.5755 423.484 23.6016C423.693 23.6276 423.901 23.6667 424.109 23.7188C425.151 23.5625 426.18 23.3932 427.195 23.2109C428.237 23.0286 429.305 22.8724 430.398 22.7422C430.919 22.6901 431.427 22.651 431.922 22.625C432.443 22.5729 432.964 22.5078 433.484 22.4297C433.667 22.4036 433.797 22.3646 433.875 22.3125C433.979 22.2344 434.031 22.0911 434.031 21.8828C434.266 21.987 434.526 22.0391 434.812 22.0391C435.255 22.0391 435.685 21.9609 436.102 21.8047C436.518 21.6484 436.948 21.5703 437.391 21.5703C437.495 21.5703 437.586 21.5833 437.664 21.6094C437.742 21.6094 437.82 21.6094 437.898 21.6094C438.081 21.6094 438.172 21.5312 438.172 21.375C438.198 21.1927 438.328 21.0755 438.562 21.0234C438.745 20.9714 439.005 20.9323 439.344 20.9062C439.682 20.8802 440.034 20.8542 440.398 20.8281C440.789 20.776 441.141 20.724 441.453 20.6719C441.792 20.5938 442.039 20.4896 442.195 20.3594L442.469 19.9297C442.938 19.9557 443.276 20.1641 443.484 20.5547C443.719 20.9193 443.849 21.3229 443.875 21.7656C443.979 21.8698 444.122 21.9219 444.305 21.9219C444.513 21.8958 444.695 21.8828 444.852 21.8828H444.969Z" fill="black"/>
</svg>
